<svg width="134" height="48" viewBox="0 0 134 48" fill="none" xmlns="http://www.w3.org/2000/svg">
<path d="M0 0H134V48H0V0Z" fill="#303030"/>
<path d="M15.521 25C15.429 25.046 15.1913 25.1073 14.808 25.184C14.44 25.276 14.095 25.322 13.773 25.322C13.4663 25.322 13.29 25.207 13.244 24.977C12.968 24.0263 12.554 22.171 12.002 19.411C11.45 16.6357 10.8903 14.121 10.323 11.867C9.771 9.613 9.23433 8.118 8.713 7.382C9.357 6.98333 9.89367 6.784 10.323 6.784C11.1203 6.784 11.6723 7.23633 11.979 8.141C12.301 9.04567 12.8223 11.5143 13.543 15.547C13.589 15.915 13.8113 17.0727 14.21 19.02C14.624 20.952 14.877 22.171 14.969 22.677C15.981 20.4383 17.108 17.456 18.35 13.73C19.592 9.98867 20.213 7.55833 20.213 6.439C21.7157 6.715 22.467 7.28233 22.467 8.141C22.467 8.76967 22.03 10.1037 21.156 12.143C20.2973 14.167 19.2547 16.5053 18.028 19.158C16.8167 21.7953 15.981 23.7427 15.521 25ZM29.1356 12.925C28.2156 12.925 27.4336 13.454 26.7896 14.512C26.1609 15.57 25.7392 16.812 25.5246 18.238H26.1686C26.9812 18.238 27.6866 18.123 28.2846 17.893C28.8826 17.663 29.3426 17.364 29.6646 16.996C30.2779 16.2907 30.5846 15.4933 30.5846 14.604C30.5846 14.098 30.4619 13.6917 30.2166 13.385C29.9866 13.0783 29.6262 12.925 29.1356 12.925ZM32.3786 22.24C31.6732 23.39 30.8989 24.195 30.0556 24.655C29.2122 25.115 28.2309 25.345 27.1116 25.345C26.0076 25.345 25.0416 24.8543 24.2136 23.873C23.3856 22.8917 22.9716 21.5117 22.9716 19.733C22.9716 17.709 23.5159 15.8997 24.6046 14.305C25.1412 13.5383 25.8389 12.9173 26.6976 12.442C27.5716 11.9667 28.5299 11.729 29.5726 11.729C31.8726 11.729 33.0226 12.8407 33.0226 15.064C33.0226 16.398 32.5012 17.4483 31.4586 18.215C30.4312 18.9663 29.2352 19.342 27.8706 19.342C26.9659 19.342 26.1532 19.2577 25.4326 19.089C25.4172 19.2423 25.4096 19.48 25.4096 19.802C25.4096 22.516 26.2146 23.873 27.8246 23.873C29.3426 23.873 30.5769 23.1217 31.5276 21.619C32.0949 21.6957 32.3786 21.9027 32.3786 22.24ZM38.7034 17.525C39.2554 15.5317 39.9147 14.0673 40.6814 13.132C41.4634 12.1813 42.184 11.706 42.8434 11.706C43.5181 11.706 44.024 11.959 44.3614 12.465C44.6987 12.9557 44.8674 13.5843 44.8674 14.351C44.8674 15.1177 44.6681 15.7847 44.2694 16.352C43.8707 16.904 43.288 17.18 42.5214 17.18C42.2761 17.18 42.0844 17.1647 41.9464 17.134C42.4677 16.3827 42.7284 15.616 42.7284 14.834C42.7284 14.282 42.5061 14.006 42.0614 14.006C41.7087 14.006 41.333 14.213 40.9344 14.627C40.5357 15.041 40.1524 15.616 39.7844 16.352C39.4164 17.088 39.1097 18.0463 38.8644 19.227C38.619 20.4077 38.4964 21.6803 38.4964 23.045C38.4964 23.1983 38.5347 23.85 38.6114 25C38.2127 25.0307 37.9827 25.046 37.9214 25.046C36.572 25.046 35.8974 24.3867 35.8974 23.068C35.8974 22.7613 36.0584 21.5807 36.3804 19.526C36.7024 17.4713 36.8634 15.8383 36.8634 14.627C36.8634 13.4003 36.733 12.2733 36.4724 11.246C37.377 11.5987 38.0057 12.1047 38.3584 12.764C38.7264 13.408 38.9104 14.167 38.9104 15.041C38.9104 15.8997 38.8414 16.7277 38.7034 17.525ZM51.0979 12.856C50.5919 12.856 50.1319 13.017 49.7179 13.339C49.3192 13.661 49.1199 14.1057 49.1199 14.673C49.1199 15.225 49.3039 15.7463 49.6719 16.237C50.0552 16.7277 50.5152 17.1647 51.0519 17.548C51.5885 17.9313 52.1329 18.3223 52.6849 18.721C53.9729 19.6717 54.6169 20.6913 54.6169 21.78C54.6169 22.8687 54.1799 23.758 53.3059 24.448C52.4319 25.1227 51.3125 25.46 49.9479 25.46C48.5985 25.46 47.5482 25.1917 46.7969 24.655C46.0609 24.1183 45.6929 23.4897 45.6929 22.769C45.6929 22.033 45.8769 21.458 46.2449 21.044C46.6129 20.63 47.0575 20.423 47.5789 20.423C47.8549 20.423 48.1155 20.4843 48.3609 20.607C48.0235 21.0363 47.8549 21.5423 47.8549 22.125C47.8549 22.7077 48.0312 23.1983 48.3839 23.597C48.7519 23.9957 49.2502 24.195 49.8789 24.195C50.5229 24.195 51.0672 24.034 51.5119 23.712C51.9565 23.3747 52.1789 22.953 52.1789 22.447C52.1789 21.941 52.0485 21.4963 51.7879 21.113C51.5272 20.7297 51.1975 20.4 50.7989 20.124C50.4155 19.848 49.9939 19.5413 49.5339 19.204C49.0739 18.8667 48.6445 18.537 48.2459 18.215C47.8625 17.8777 47.5405 17.4637 47.2799 16.973C47.0192 16.467 46.8889 15.915 46.8889 15.317C46.8889 14.2283 47.3029 13.339 48.1309 12.649C48.9589 11.9437 50.0015 11.591 51.2589 11.591C52.5162 11.591 53.4362 11.8517 54.0189 12.373C54.6015 12.8943 54.8929 13.4847 54.8929 14.144C54.8929 14.788 54.7319 15.3247 54.4099 15.754C54.0879 16.168 53.6739 16.375 53.1679 16.375C52.9225 16.375 52.6389 16.306 52.3169 16.168C52.7155 15.6773 52.9149 15.1483 52.9149 14.581C52.9149 14.0137 52.7385 13.5843 52.3859 13.293C52.0485 13.0017 51.6192 12.856 51.0979 12.856ZM66.5758 17.456C66.5758 15.9533 66.3841 14.88 66.0008 14.236C65.6328 13.5767 65.0961 13.247 64.3908 13.247C63.7008 13.247 63.0031 13.592 62.2978 14.282C61.5925 14.9567 61.0328 15.8 60.6188 16.812C60.2201 17.8087 60.0208 18.8513 60.0208 19.94C60.0208 21.0133 60.2278 21.9487 60.6418 22.746C61.0558 23.528 61.6845 23.919 62.5278 23.919C63.7238 23.919 64.6975 23.2137 65.4488 21.803C66.2001 20.3923 66.5758 18.9433 66.5758 17.456ZM59.9058 16.559C60.4885 14.903 61.2705 13.6993 62.2518 12.948C63.2485 12.1813 64.2528 11.798 65.2648 11.798C66.2921 11.798 67.1431 12.2503 67.8178 13.155C68.4925 14.0443 68.8298 15.2557 68.8298 16.789C68.8298 18.4757 68.5078 20.0397 67.8638 21.481C67.1431 23.0757 66.1005 24.1873 64.7358 24.816C63.9998 25.1687 63.1871 25.345 62.2978 25.345C61.0558 25.345 59.9671 24.8313 59.0318 23.804C58.0965 22.7613 57.6288 21.2817 57.6288 19.365C57.6288 17.433 58.0428 15.7617 58.8708 14.351C59.6988 12.9403 60.8258 11.959 62.2518 11.407C62.5585 11.407 62.7118 11.5603 62.7118 11.867C61.1938 12.8637 60.2585 14.4277 59.9058 16.559ZM87.3031 6.554C88.1618 6.63067 88.7751 6.899 89.1431 7.359C89.5111 7.80367 89.6951 8.42467 89.6951 9.222C89.6951 10.004 89.4421 12.1277 88.9361 15.593C88.4301 19.0583 88.1771 21.4887 88.1771 22.884C88.1771 24.264 88.2844 25.207 88.4991 25.713C87.4871 25.3757 86.7818 24.9233 86.3831 24.356C85.9998 23.7887 85.8081 23.114 85.8081 22.332C85.8081 21.55 85.9768 19.9017 86.3141 17.387C86.6668 14.8723 86.8968 12.9557 87.0041 11.637C86.3754 12.8483 85.3251 14.5657 83.8531 16.789C82.3964 19.0123 81.5531 20.308 81.3231 20.676C80.9551 20.8907 80.5718 20.998 80.1731 20.998C79.4524 20.998 79.0461 20.8677 78.9541 20.607C78.7854 20.1777 78.5171 19.4953 78.1491 18.56C77.7964 17.6093 77.5051 16.835 77.2751 16.237C76.6004 14.5503 75.9948 13.132 75.4581 11.982C75.4428 12.0893 75.2511 13.569 74.8831 16.421C74.5304 19.2577 74.3541 21.5193 74.3541 23.206C74.3541 23.6813 74.3848 24.3177 74.4461 25.115C72.8514 25.115 72.0541 24.632 72.0541 23.666C72.0541 23.528 72.3454 21.4503 72.9281 17.433C73.5261 13.4003 73.8251 10.5943 73.8251 9.015V8.9C73.3804 8.17933 72.9128 7.589 72.4221 7.129C72.7901 6.73033 73.2424 6.531 73.7791 6.531C74.8218 6.531 75.6574 7.12133 76.2861 8.302C76.9301 9.46733 78.3484 12.9403 80.5411 18.721C80.5871 18.813 80.6178 18.882 80.6331 18.928C80.7711 18.7133 81.1468 18.1613 81.7601 17.272C82.3734 16.3827 82.8334 15.7003 83.1401 15.225C83.4621 14.7343 83.8991 14.0443 84.4511 13.155C85.0031 12.2503 85.4324 11.476 85.7391 10.832C86.5978 9.084 87.1191 7.658 87.3031 6.554ZM96.7275 16.007C96.2829 16.7737 95.9379 17.5633 95.6925 18.376C95.4625 19.1733 95.3475 19.94 95.3475 20.676C95.3475 21.412 95.5085 22.0407 95.8305 22.562C96.1679 23.068 96.6432 23.321 97.2565 23.321C98.1152 23.321 98.9202 22.8533 99.6715 21.918C100.423 20.9673 100.998 19.825 101.397 18.491C101.811 17.1417 102.018 15.8997 102.018 14.765C102.018 13.615 101.972 12.672 101.88 11.936C102.248 11.9053 102.478 11.89 102.57 11.89C103.873 11.89 104.525 12.557 104.525 13.891C104.525 14.1823 104.341 15.3707 103.973 17.456C103.605 19.526 103.421 21.1897 103.421 22.447C103.421 23.689 103.658 24.793 104.134 25.759C103.168 25.5597 102.462 25.138 102.018 24.494C101.588 23.8347 101.374 22.8917 101.374 21.665C101.374 21.4503 101.404 21.0363 101.466 20.423C101.052 21.8797 100.323 23.0527 99.2805 23.942C98.2379 24.8313 97.2105 25.276 96.1985 25.276C95.2019 25.276 94.3969 24.9003 93.7835 24.149C93.1702 23.3823 92.8635 22.332 92.8635 20.998C92.8635 19.6487 93.1089 18.3377 93.5995 17.065C94.1055 15.777 94.8569 14.6653 95.8535 13.73C96.8655 12.7947 97.9925 12.327 99.2345 12.327C99.7712 12.327 100.362 12.4343 101.006 12.649C100.101 12.879 99.2729 13.3007 98.5215 13.914C97.7702 14.5273 97.1722 15.225 96.7275 16.007ZM111.005 17.525C111.557 15.5317 112.216 14.0673 112.983 13.132C113.765 12.1813 114.486 11.706 115.145 11.706C115.82 11.706 116.326 11.959 116.663 12.465C117 12.9557 117.169 13.5843 117.169 14.351C117.169 15.1177 116.97 15.7847 116.571 16.352C116.172 16.904 115.59 17.18 114.823 17.18C114.578 17.18 114.386 17.1647 114.248 17.134C114.769 16.3827 115.03 15.616 115.03 14.834C115.03 14.282 114.808 14.006 114.363 14.006C114.01 14.006 113.635 14.213 113.236 14.627C112.837 15.041 112.454 15.616 112.086 16.352C111.718 17.088 111.411 18.0463 111.166 19.227C110.921 20.4077 110.798 21.6803 110.798 23.045C110.798 23.1983 110.836 23.85 110.913 25C110.514 25.0307 110.284 25.046 110.223 25.046C108.874 25.046 108.199 24.3867 108.199 23.068C108.199 22.7613 108.36 21.5807 108.682 19.526C109.004 17.4713 109.165 15.8383 109.165 14.627C109.165 13.4003 109.035 12.2733 108.774 11.246C109.679 11.5987 110.307 12.1047 110.66 12.764C111.028 13.408 111.212 14.167 111.212 15.041C111.212 15.8997 111.143 16.7277 111.005 17.525ZM125.999 12.396C125.999 13.04 125.876 13.4847 125.631 13.73C125.385 13.9753 125.025 14.098 124.55 14.098H122.894C122.832 14.4967 122.671 15.4473 122.411 16.95C121.889 19.802 121.629 21.9563 121.629 23.413C121.629 24.8697 121.736 25.8357 121.951 26.311C121.077 25.989 120.456 25.506 120.088 24.862C119.72 24.2027 119.536 23.4053 119.536 22.47C119.536 21.5347 119.589 20.653 119.697 19.825C119.819 18.9817 119.988 18.0003 120.203 16.881C120.417 15.7617 120.571 14.8647 120.663 14.19C119.789 14.3127 118.93 14.558 118.087 14.926C118.056 14.6807 118.041 14.4583 118.041 14.259C118.041 13.523 118.286 13.0323 118.777 12.787C119.267 12.5263 119.973 12.396 120.893 12.396C121 11.2613 121.054 10.418 121.054 9.866C121.054 9.29867 121.046 8.84633 121.031 8.509C121.031 8.17167 121.031 7.91867 121.031 7.75C121.736 7.85733 122.28 8.17167 122.664 8.693C123.047 9.199 123.239 9.89667 123.239 10.786C123.239 11.246 123.2 11.8057 123.124 12.465C124.458 12.465 125.401 12.2427 125.953 11.798C125.983 12.0127 125.999 12.212 125.999 12.396Z" fill="white"/>
<path d="M37.304 31.9767C37.304 32.3501 37.4267 32.6701 37.672 32.9367C37.928 33.1927 38.36 33.4114 38.968 33.5927C39 33.6141 39 33.6514 38.968 33.7047C38.9467 33.7474 38.9093 33.7954 38.856 33.8487C38.8027 33.9021 38.7387 33.9501 38.664 33.9927C38.6 34.0354 38.5467 34.0621 38.504 34.0727C37.3093 34.0194 36.3813 34.2807 35.72 34.8567C35.0587 35.4221 34.728 36.2807 34.728 37.4327C34.728 37.8061 34.7813 38.1527 34.888 38.4727C35.0053 38.7927 35.1653 39.0701 35.368 39.3047C35.5813 39.5394 35.832 39.7261 36.12 39.8647C36.4187 39.9927 36.7547 40.0567 37.128 40.0567C38.0027 40.0567 38.7173 39.8541 39.272 39.4487C39.8267 39.0434 40.2267 38.3874 40.472 37.4807C40.504 37.4274 40.536 37.4114 40.568 37.4327C40.6107 37.4541 40.6373 37.4967 40.648 37.5607C40.52 38.1581 40.3653 38.6541 40.184 39.0487C40.0133 39.4434 39.8533 39.6727 39.704 39.7367C39.3307 39.9074 38.8773 40.0514 38.344 40.1687C37.8213 40.2861 37.288 40.3447 36.744 40.3447C36.296 40.3447 35.896 40.2754 35.544 40.1367C35.2027 39.9981 34.9147 39.8114 34.68 39.5767C34.4453 39.3421 34.264 39.0754 34.136 38.7767C34.0187 38.4674 33.96 38.1474 33.96 37.8167C33.96 37.3047 34.0507 36.8247 34.232 36.3767C34.424 35.9181 34.6853 35.5127 35.016 35.1607C35.3573 34.8087 35.7573 34.5101 36.216 34.2647C36.6853 34.0194 37.1973 33.8487 37.752 33.7527C37.4107 33.5714 37.144 33.3581 36.952 33.1127C36.76 32.8674 36.664 32.6007 36.664 32.3127C36.664 32.0141 36.7387 31.7314 36.888 31.4647C37.048 31.1874 37.2613 30.9474 37.528 30.7447C37.8053 30.5314 38.1253 30.3607 38.488 30.2327C38.8613 30.1047 39.2667 30.0407 39.704 30.0407C39.96 30.0407 40.2107 30.0674 40.456 30.1207C40.7013 30.1634 40.92 30.2274 41.112 30.3127C41.304 30.3874 41.4533 30.4781 41.56 30.5847C41.6773 30.6807 41.736 30.7821 41.736 30.8887C41.736 30.9741 41.7147 31.0754 41.672 31.1927C41.64 31.2994 41.5973 31.4114 41.544 31.5287C41.5013 31.6461 41.448 31.7581 41.384 31.8647C41.3307 31.9607 41.288 32.0301 41.256 32.0727C41.2347 32.0941 41.2027 32.0994 41.16 32.0887C41.128 32.0674 41.1173 32.0354 41.128 31.9927C41.192 31.8754 41.24 31.7474 41.272 31.6087C41.304 31.4594 41.2773 31.3154 41.192 31.1767C41.0747 30.9847 40.8507 30.7927 40.52 30.6007C40.1893 30.4087 39.8107 30.3127 39.384 30.3127C39.032 30.3127 38.728 30.3607 38.472 30.4567C38.216 30.5527 37.9973 30.6807 37.816 30.8407C37.6453 31.0007 37.5173 31.1821 37.432 31.3847C37.3467 31.5767 37.304 31.7741 37.304 31.9767ZM42.5383 40.1207C42.3889 40.1847 42.2396 40.2381 42.0903 40.2807C41.9409 40.3234 41.8076 40.3447 41.6903 40.3447C41.5623 40.3447 41.5303 40.2754 41.5943 40.1367C41.7756 39.6887 41.9303 39.2034 42.0583 38.6807C42.1863 38.1474 42.2716 37.6727 42.3143 37.2567C42.3463 36.8834 42.2876 36.6967 42.1383 36.6967C41.9889 36.6967 41.7916 36.8194 41.5463 37.0647C41.4929 37.0861 41.4503 37.0807 41.4183 37.0487C41.3863 37.0167 41.3863 36.9794 41.4183 36.9367C41.6636 36.6914 41.8769 36.5154 42.0583 36.4087C42.2503 36.3021 42.4263 36.2487 42.5863 36.2487C42.7143 36.2487 42.7996 36.2967 42.8423 36.3927C42.8956 36.4887 42.9223 36.6114 42.9223 36.7607C42.9223 36.9634 42.9009 37.2034 42.8583 37.4807C42.8156 37.7581 42.7569 38.0514 42.6823 38.3607C42.6183 38.6594 42.5436 38.9581 42.4583 39.2567C42.3729 39.5447 42.2929 39.8061 42.2183 40.0407C42.5169 39.9661 42.8156 39.8274 43.1143 39.6247C43.4129 39.4221 43.6796 39.1874 43.9143 38.9207C44.1489 38.6541 44.3356 38.3661 44.4743 38.0567C44.6236 37.7367 44.6983 37.4167 44.6983 37.0967C44.6983 36.8194 44.6076 36.6807 44.4263 36.6807C44.2769 36.6807 44.1436 36.7661 44.0263 36.9367C43.9943 36.9581 43.9676 36.9527 43.9463 36.9207C43.9249 36.8887 43.9196 36.8567 43.9303 36.8247C44.0156 36.6861 44.1329 36.5581 44.2823 36.4407C44.4423 36.3127 44.5969 36.2487 44.7463 36.2487C44.8636 36.2487 44.9596 36.3021 45.0343 36.4087C45.1196 36.5154 45.1623 36.6754 45.1623 36.8887C45.1623 37.1981 45.0929 37.5074 44.9543 37.8167C44.8263 38.1261 44.6449 38.4247 44.4103 38.7127C44.1756 39.0007 43.8983 39.2674 43.5783 39.5127C43.2583 39.7581 42.9116 39.9607 42.5383 40.1207ZM48.546 36.9527C48.546 37.1021 48.4873 37.2407 48.37 37.3687C48.2527 37.4967 48.0927 37.6141 47.89 37.7207C47.6873 37.8167 47.4527 37.9074 47.186 37.9927C46.93 38.0781 46.658 38.1581 46.37 38.2327C46.3593 38.3501 46.3487 38.4674 46.338 38.5847C46.338 38.7021 46.338 38.8301 46.338 38.9687C46.338 39.2354 46.3967 39.4594 46.514 39.6407C46.6313 39.8221 46.7967 39.9127 47.01 39.9127C47.2233 39.9127 47.4207 39.8594 47.602 39.7527C47.794 39.6461 47.9647 39.5021 48.114 39.3207C48.1567 39.2994 48.1887 39.3047 48.21 39.3367C48.2313 39.3687 48.2313 39.4061 48.21 39.4487C48.0287 39.6941 47.7993 39.9074 47.522 40.0887C47.2553 40.2594 46.9727 40.3447 46.674 40.3447C46.3967 40.3447 46.1673 40.2541 45.986 40.0727C45.8153 39.8914 45.73 39.6247 45.73 39.2727C45.73 38.9527 45.7887 38.6167 45.906 38.2647C46.0233 37.9021 46.178 37.5714 46.37 37.2727C46.562 36.9741 46.7807 36.7287 47.026 36.5367C47.282 36.3447 47.5487 36.2487 47.826 36.2487C48.0287 36.2487 48.1993 36.3234 48.338 36.4727C48.4767 36.6114 48.546 36.7714 48.546 36.9527ZM47.49 36.6647C47.2447 36.6647 47.026 36.7714 46.834 36.9847C46.642 37.1981 46.5033 37.5341 46.418 37.9927C46.93 37.9181 47.3033 37.8114 47.538 37.6727C47.7833 37.5234 47.906 37.3581 47.906 37.1767C47.906 37.0274 47.8687 36.9047 47.794 36.8087C47.7193 36.7127 47.618 36.6647 47.49 36.6647ZM50.4829 36.6967C50.4829 36.8567 50.4669 37.0434 50.4349 37.2567C50.4029 37.4701 50.3602 37.6834 50.3069 37.8967C50.5202 37.3847 50.7549 36.9847 51.0109 36.6967C51.2669 36.3981 51.5442 36.2487 51.8429 36.2487C51.9602 36.2487 52.0669 36.2807 52.1629 36.3447C52.2589 36.4087 52.3069 36.4994 52.3069 36.6167C52.3069 36.7021 52.2749 36.8141 52.2109 36.9527C52.1469 37.0807 52.0829 37.1767 52.0189 37.2407C51.9549 37.2834 51.9229 37.2674 51.9229 37.1927C51.9229 37.0114 51.8002 36.9207 51.5549 36.9207C51.1815 36.9207 50.8455 37.2034 50.5469 37.7687C50.2482 38.3234 49.9655 39.0967 49.6989 40.0887C49.6775 40.1954 49.6029 40.2647 49.4749 40.2967C49.3575 40.3287 49.2562 40.3447 49.1709 40.3447C49.0535 40.3447 49.0269 40.2861 49.0909 40.1687C49.1869 39.9447 49.2775 39.7047 49.3629 39.4487C49.4482 39.1821 49.5282 38.9154 49.6029 38.6487C49.6882 38.3821 49.7575 38.1207 49.8109 37.8647C49.8642 37.6087 49.9069 37.3741 49.9389 37.1607C49.9815 36.8407 49.9282 36.6807 49.7789 36.6807C49.6935 36.6807 49.5922 36.7287 49.4749 36.8247C49.3682 36.9207 49.2669 37.0327 49.1709 37.1607C49.1282 37.1821 49.0909 37.1821 49.0589 37.1607C49.0269 37.1287 49.0215 37.0914 49.0429 37.0487C49.2029 36.8461 49.3789 36.6647 49.5709 36.5047C49.7735 36.3341 49.9602 36.2487 50.1309 36.2487C50.3655 36.2487 50.4829 36.3981 50.4829 36.6967ZM55.5599 36.6327C55.5705 36.6007 55.5972 36.5687 55.6399 36.5367C55.6825 36.4941 55.7305 36.4514 55.7839 36.4087C55.8479 36.3661 55.9065 36.3341 55.9599 36.3127C56.0239 36.2807 56.0719 36.2647 56.1039 36.2647C56.1999 36.2647 56.2372 36.3021 56.2159 36.3767C55.9812 37.0381 55.7519 37.6834 55.5279 38.3127C55.3039 38.9314 55.0639 39.5767 54.8079 40.2487C54.5199 40.9954 54.2105 41.6194 53.8799 42.1207C53.5599 42.6327 53.2185 43.0434 52.8559 43.3527C52.5039 43.6727 52.1359 43.9021 51.7519 44.0407C51.3679 44.1794 50.9732 44.2487 50.5679 44.2487C50.0025 44.2487 49.5759 44.1047 49.2879 43.8167C48.9892 43.5394 48.8399 43.1927 48.8399 42.7767C48.8399 42.5847 48.8932 42.3821 48.9999 42.1687C49.0959 41.9554 49.2505 41.7687 49.4639 41.6087C49.4959 41.5874 49.5279 41.5981 49.5599 41.6407C49.5812 41.6834 49.5812 41.7154 49.5599 41.7367C49.3892 41.9394 49.3039 42.1687 49.3039 42.4247C49.3039 42.8727 49.4319 43.2354 49.6879 43.5127C49.9439 43.7901 50.3332 43.9287 50.8559 43.9287C51.2292 43.9287 51.5705 43.8701 51.8799 43.7527C52.1999 43.6354 52.4985 43.4274 52.7759 43.1287C53.0639 42.8301 53.3359 42.4301 53.5919 41.9287C53.8585 41.4274 54.1305 40.7981 54.4079 40.0407C54.5252 39.6887 54.6372 39.3634 54.7439 39.0647C54.8612 38.7661 54.9785 38.4567 55.0959 38.1367C54.6905 38.7767 54.2639 39.2994 53.8159 39.7047C53.3785 40.1101 52.9892 40.3287 52.6479 40.3607C52.5092 40.3607 52.4079 40.2967 52.3439 40.1687C52.2799 40.0407 52.2479 39.8647 52.2479 39.6407C52.2479 39.4487 52.2692 39.2407 52.3119 39.0167C52.3545 38.7821 52.4132 38.5421 52.4879 38.2967C52.5732 38.0514 52.6745 37.8061 52.7919 37.5607C52.9199 37.3047 53.0585 37.0594 53.2079 36.8247C53.0905 36.9101 52.9679 37.0061 52.8399 37.1127C52.7119 37.2087 52.6052 37.2994 52.5199 37.3847C52.4879 37.4061 52.4559 37.4007 52.4239 37.3687C52.4025 37.3261 52.4025 37.2887 52.4239 37.2567C52.5732 37.1074 52.7759 36.9367 53.0319 36.7447C53.2879 36.5527 53.5385 36.3927 53.7839 36.2647C53.8905 36.2647 53.9332 36.3127 53.9119 36.4087C53.7519 36.6221 53.6025 36.8621 53.4639 37.1287C53.3359 37.3847 53.2239 37.6461 53.1279 37.9127C53.0319 38.1687 52.9572 38.4247 52.9039 38.6807C52.8505 38.9367 52.8239 39.1661 52.8239 39.3687C52.8239 39.6674 52.9252 39.8167 53.1279 39.8167C53.2985 39.8167 53.5012 39.7047 53.7359 39.4807C53.9812 39.2461 54.2212 38.9687 54.4559 38.6487C54.7012 38.3181 54.9199 37.9714 55.1119 37.6087C55.3145 37.2354 55.4639 36.9101 55.5599 36.6327ZM59.4523 36.3127C59.5056 36.3341 59.5269 36.3661 59.5163 36.4087C59.5056 36.4514 59.4576 36.4781 59.3723 36.4887C59.2016 36.4994 59.0096 36.5101 58.7963 36.5207C58.5936 36.5314 58.3856 36.5474 58.1723 36.5687C57.9589 37.1021 57.7829 37.6141 57.6443 38.1047C57.5056 38.5954 57.4363 39.0007 57.4363 39.3207C57.4363 39.6834 57.5749 39.8647 57.8523 39.8647C58.1296 39.8647 58.4336 39.6194 58.7643 39.1287C58.7963 39.1074 58.8283 39.1127 58.8603 39.1447C58.8923 39.1661 58.9029 39.2034 58.8923 39.2567C58.7963 39.4061 58.6843 39.5501 58.5563 39.6887C58.4389 39.8167 58.3163 39.9287 58.1883 40.0247C58.0603 40.1207 57.9376 40.2007 57.8203 40.2647C57.7029 40.3181 57.6069 40.3447 57.5323 40.3447C57.2976 40.3447 57.1216 40.2754 57.0043 40.1367C56.8976 39.9874 56.8443 39.8114 56.8443 39.6087C56.8443 39.2567 56.9189 38.8141 57.0683 38.2807C57.2176 37.7474 57.4043 37.1981 57.6283 36.6327C57.4896 36.6541 57.3563 36.6754 57.2283 36.6967C57.1003 36.7181 56.9776 36.7394 56.8603 36.7607C56.8069 36.7501 56.7909 36.7234 56.8123 36.6807C56.8443 36.6381 56.8923 36.5954 56.9563 36.5527C57.0309 36.5101 57.1163 36.4727 57.2122 36.4407C57.3083 36.3981 57.3989 36.3767 57.4843 36.3767C57.5376 36.3661 57.5803 36.3607 57.6123 36.3607C57.6549 36.3607 57.6976 36.3607 57.7403 36.3607C57.8896 36.0301 58.0389 35.7154 58.1883 35.4167C58.3376 35.1074 58.4869 34.8247 58.6363 34.5687C58.7003 34.5047 58.7696 34.4514 58.8443 34.4087C58.9296 34.3554 59.0096 34.3234 59.0843 34.3127C59.1589 34.2914 59.2176 34.2861 59.2603 34.2967C59.3029 34.2967 59.3189 34.3127 59.3083 34.3447C59.1269 34.6221 58.9456 34.9314 58.7643 35.2727C58.5936 35.6141 58.4282 35.9661 58.2682 36.3287C58.4603 36.3287 58.6523 36.3287 58.8443 36.3287C59.0363 36.3181 59.2389 36.3127 59.4523 36.3127ZM59.3066 40.2007C59.7866 38.3661 60.3253 36.7127 60.9226 35.2407C61.52 33.7687 62.144 32.5154 62.7946 31.4807C63.456 30.4461 64.128 29.6514 64.8106 29.0967C65.4933 28.5314 66.1546 28.2487 66.7946 28.2487C67.0293 28.2487 67.2213 28.2967 67.3706 28.3927C67.5306 28.4781 67.6373 28.5901 67.6906 28.7287C67.7546 28.8674 67.7706 29.0221 67.7386 29.1927C67.7173 29.3634 67.6426 29.5287 67.5146 29.6887C67.4933 29.7207 67.4666 29.7314 67.4346 29.7207C67.4026 29.7101 67.3866 29.6834 67.3866 29.6407C67.4293 29.4274 67.3653 29.2247 67.1946 29.0327C67.024 28.8407 66.752 28.7447 66.3786 28.7447C65.8773 28.7447 65.3653 28.9421 64.8426 29.3367C64.32 29.7314 63.7973 30.3394 63.2746 31.1607C62.752 31.9714 62.2346 32.9954 61.7226 34.2327C61.2213 35.4701 60.736 36.9367 60.2666 38.6327C60.4373 38.3021 60.6346 37.9927 60.8586 37.7047C61.0826 37.4061 61.312 37.1501 61.5466 36.9367C61.7813 36.7234 62.016 36.5581 62.2506 36.4407C62.496 36.3127 62.7306 36.2487 62.9546 36.2487C63.0826 36.2487 63.1786 36.2807 63.2426 36.3447C63.3066 36.4087 63.3386 36.4834 63.3386 36.5687C63.3386 36.7074 63.2906 36.8621 63.1946 37.0327C62.9706 37.4274 62.784 37.8327 62.6346 38.2487C62.496 38.6647 62.4266 39.0434 62.4266 39.3847C62.4266 39.5341 62.4426 39.6567 62.4746 39.7527C62.5173 39.8487 62.5813 39.8967 62.6666 39.8967C62.7733 39.8967 62.8853 39.8434 63.0026 39.7367C63.1306 39.6194 63.2426 39.4914 63.3386 39.3527C63.3706 39.3314 63.4026 39.3367 63.4346 39.3687C63.4666 39.3901 63.4773 39.4221 63.4666 39.4647C63.4026 39.5607 63.3226 39.6621 63.2266 39.7687C63.1306 39.8647 63.024 39.9607 62.9066 40.0567C62.8 40.1421 62.688 40.2114 62.5706 40.2647C62.4533 40.3181 62.3466 40.3447 62.2506 40.3447C61.984 40.3447 61.8506 40.1207 61.8506 39.6727C61.8506 39.2887 61.9146 38.8727 62.0426 38.4247C62.1706 37.9661 62.3253 37.5607 62.5066 37.2087C62.5706 37.1021 62.6026 37.0114 62.6026 36.9367C62.6026 36.8407 62.544 36.7927 62.4266 36.7927C62.2346 36.7927 62.0266 36.8674 61.8026 37.0167C61.5786 37.1661 61.3493 37.3847 61.1146 37.6727C60.88 37.9607 60.656 38.3127 60.4426 38.7287C60.2293 39.1341 60.0373 39.5927 59.8666 40.1047C59.8453 40.1794 59.7866 40.2381 59.6906 40.2807C59.6053 40.3234 59.52 40.3447 59.4346 40.3447C59.3173 40.3447 59.2746 40.2967 59.3066 40.2007ZM64.3945 37.3687C64.3625 37.3901 64.3305 37.3847 64.2985 37.3527C64.2772 37.3101 64.2772 37.2727 64.2985 37.2407C64.4478 37.0914 64.6505 36.9207 64.9065 36.7287C65.1625 36.5367 65.4185 36.3767 65.6745 36.2487C65.7598 36.2487 65.8025 36.2967 65.8025 36.3927C65.6638 36.6381 65.5252 36.9047 65.3865 37.1927C65.2585 37.4807 65.1412 37.7687 65.0345 38.0567C64.9385 38.3341 64.8585 38.6061 64.7945 38.8727C64.7305 39.1287 64.6985 39.3421 64.6985 39.5127C64.6985 39.7367 64.7732 39.8487 64.9225 39.8487C65.0398 39.8487 65.1518 39.8007 65.2585 39.7047C65.3758 39.5981 65.5092 39.4594 65.6585 39.2887C65.6798 39.2674 65.7065 39.2727 65.7385 39.3047C65.7705 39.3367 65.7758 39.3741 65.7545 39.4167C65.5625 39.6514 65.3545 39.8647 65.1305 40.0567C64.9172 40.2487 64.7145 40.3447 64.5225 40.3447C64.2452 40.3447 64.1065 40.1687 64.1065 39.8167C64.1065 39.6141 64.1385 39.3741 64.2025 39.0967C64.2772 38.8087 64.3678 38.5207 64.4745 38.2327C64.5812 37.9447 64.6985 37.6674 64.8265 37.4007C64.9652 37.1341 65.0985 36.9047 65.2265 36.7127C65.1092 36.7981 64.9598 36.9101 64.7785 37.0487C64.6078 37.1767 64.4798 37.2834 64.3945 37.3687ZM65.8345 35.5607C65.8025 35.5927 65.7705 35.5981 65.7385 35.5767C65.7172 35.5447 65.7012 35.5074 65.6905 35.4647C65.6798 35.4114 65.6745 35.3527 65.6745 35.2887C65.6745 35.2247 65.6905 35.1714 65.7225 35.1287C65.9998 34.7447 66.3892 34.3341 66.8905 33.8967C66.9225 33.8861 66.9545 33.8967 66.9865 33.9287C67.0185 33.9501 67.0238 33.9714 67.0025 33.9927C66.7785 34.1954 66.5652 34.4407 66.3625 34.7287C66.1598 35.0061 65.9838 35.2834 65.8345 35.5607ZM70.4651 39.3207C70.4971 39.2994 70.5291 39.2994 70.5611 39.3207C70.5931 39.3421 70.6038 39.3741 70.5931 39.4167C70.4118 39.6621 70.2091 39.8807 69.9851 40.0727C69.7718 40.2541 69.5691 40.3447 69.3771 40.3447C69.0465 40.3447 68.8811 40.1314 68.8811 39.7047C68.8811 39.3421 68.9451 38.9421 69.0731 38.5047C69.2011 38.0567 69.3771 37.6087 69.6011 37.1607C69.6438 37.0861 69.6651 37.0114 69.6651 36.9367C69.6651 36.8194 69.6118 36.7607 69.5051 36.7607C69.1105 36.7607 68.6731 37.0327 68.1931 37.5767C67.7238 38.1207 67.2865 38.9741 66.8811 40.1367C66.8598 40.2007 66.8011 40.2541 66.7051 40.2967C66.6091 40.3287 66.5185 40.3447 66.4331 40.3447C66.3158 40.3447 66.2731 40.2967 66.3051 40.2007C66.4865 39.7421 66.6731 39.2247 66.8651 38.6487C67.0678 38.0727 67.2438 37.5021 67.3931 36.9367C67.4358 36.7341 67.3985 36.6327 67.2811 36.6327C67.1745 36.6327 67.0678 36.6861 66.9611 36.7927C66.8545 36.8994 66.7425 37.0381 66.6251 37.2087C66.6038 37.2301 66.5771 37.2247 66.5451 37.1927C66.5238 37.1607 66.5185 37.1287 66.5291 37.0967C66.6465 36.9154 66.8065 36.7287 67.0091 36.5367C67.2118 36.3447 67.4305 36.2487 67.6651 36.2487C67.9318 36.2487 68.0225 36.4301 67.9371 36.7927C67.8945 37.0274 67.8358 37.2781 67.7611 37.5447C67.6865 37.8007 67.6065 38.0567 67.5211 38.3127C67.6705 38.0247 67.8465 37.7527 68.0491 37.4967C68.2518 37.2407 68.4598 37.0221 68.6731 36.8407C68.8971 36.6594 69.1158 36.5154 69.3291 36.4087C69.5531 36.3021 69.7611 36.2487 69.9531 36.2487C70.0811 36.2487 70.1771 36.2807 70.2411 36.3447C70.3158 36.4087 70.3531 36.4834 70.3531 36.5687C70.3531 36.7074 70.3211 36.8461 70.2571 36.9847C70.0331 37.3901 69.8411 37.8167 69.6811 38.2647C69.5318 38.7021 69.4571 39.1074 69.4571 39.4807C69.4571 39.7474 69.5425 39.8807 69.7131 39.8807C69.9371 39.8807 70.1878 39.6941 70.4651 39.3207ZM74.2254 36.0247C74.2574 36.0034 74.2894 36.0087 74.3214 36.0407C74.3534 36.0621 74.3587 36.0941 74.3374 36.1367C74.252 36.2647 74.1454 36.3821 74.0174 36.4887C73.8894 36.5847 73.7294 36.6274 73.5374 36.6167C73.6334 36.7767 73.6814 36.9847 73.6814 37.2407C73.6814 37.4861 73.644 37.7101 73.5694 37.9127C73.4947 38.1154 73.4094 38.3074 73.3134 38.4887C73.2174 38.6701 73.116 38.8407 73.0094 39.0007C72.9134 39.1607 72.8334 39.3261 72.7694 39.4967C72.716 39.6674 72.6894 39.8434 72.6894 40.0247C72.7 40.1954 72.764 40.3874 72.8814 40.6007C72.9774 40.7821 73.0627 40.9421 73.1374 41.0807C73.2227 41.2301 73.292 41.3687 73.3454 41.4967C73.4094 41.6354 73.452 41.7741 73.4734 41.9127C73.5054 42.0514 73.5214 42.2007 73.5214 42.3607C73.5214 42.6167 73.468 42.8567 73.3614 43.0807C73.2547 43.3154 73.1 43.5181 72.8974 43.6887C72.6947 43.8701 72.4494 44.0087 72.1614 44.1047C71.8734 44.2114 71.548 44.2647 71.1854 44.2647C70.812 44.2647 70.476 44.2114 70.1774 44.1047C69.8787 43.9981 69.628 43.8541 69.4254 43.6727C69.212 43.5021 69.052 43.2994 68.9454 43.0647C68.8387 42.8407 68.7854 42.6061 68.7854 42.3607C68.7854 42.0407 68.9027 41.7581 69.1374 41.5127C69.3614 41.2781 69.6867 41.1021 70.1134 40.9847C70.1667 40.9847 70.204 41.0007 70.2254 41.0327C70.236 41.0754 70.2254 41.1127 70.1934 41.1447C69.9694 41.2301 69.788 41.3581 69.6494 41.5287C69.5107 41.6994 69.4414 41.9287 69.4414 42.2167C69.4414 42.7607 69.628 43.1981 70.0014 43.5287C70.3747 43.8594 70.8654 44.0247 71.4734 44.0247C71.9854 44.0247 72.364 43.8914 72.6094 43.6247C72.8547 43.3687 72.9774 43.0327 72.9774 42.6167C72.9774 42.3714 72.94 42.1527 72.8654 41.9607C72.7907 41.7687 72.6787 41.5501 72.5294 41.3047C72.3267 40.9634 72.236 40.6381 72.2574 40.3287C72.2894 40.0087 72.4014 39.6781 72.5934 39.3367C72.6147 39.2941 72.636 39.2567 72.6574 39.2247C72.6894 39.1821 72.716 39.1341 72.7374 39.0807C72.62 39.2087 72.4814 39.3207 72.3214 39.4167C72.172 39.5127 72.044 39.5607 71.9374 39.5607C71.4147 39.5607 71.1534 39.2194 71.1534 38.5367C71.1534 38.3127 71.196 38.0674 71.2814 37.8007C71.3667 37.5341 71.484 37.2887 71.6334 37.0647C71.7934 36.8301 71.9747 36.6381 72.1774 36.4887C72.3907 36.3394 72.6254 36.2647 72.8814 36.2647C73.2547 36.2647 73.5427 36.2541 73.7454 36.2327C73.948 36.2007 74.108 36.1314 74.2254 36.0247ZM72.9454 38.6967C73.0094 38.5474 73.0627 38.3927 73.1054 38.2327C73.148 38.0727 73.1694 37.9127 73.1694 37.7527C73.1694 37.4434 73.116 37.2034 73.0094 37.0327C72.9134 36.8514 72.7534 36.7607 72.5294 36.7607C72.2734 36.7607 72.0547 36.8887 71.8734 37.1447C71.7027 37.4007 71.6174 37.7634 71.6174 38.2327C71.6174 38.5421 71.6654 38.7661 71.7614 38.9047C71.868 39.0434 72.0227 39.1127 72.2254 39.1127C72.3427 39.1127 72.4707 39.0754 72.6094 39.0007C72.748 38.9261 72.86 38.8247 72.9454 38.6967ZM83.799 28.7127C84.0017 28.7127 84.1723 28.7554 84.311 28.8407C84.4497 28.9261 84.551 29.0381 84.615 29.1767C84.6897 29.3154 84.727 29.4701 84.727 29.6407C84.727 29.8007 84.6897 29.9607 84.615 30.1207C84.5937 30.1527 84.567 30.1634 84.535 30.1527C84.503 30.1421 84.4763 30.1207 84.455 30.0887C84.4337 29.8754 84.3323 29.6887 84.151 29.5287C83.9803 29.3581 83.7083 29.2727 83.335 29.2727C82.9297 29.2727 82.5403 29.3794 82.167 29.5927C81.8043 29.8061 81.431 30.1794 81.047 30.7127C80.6737 31.2461 80.2897 31.9661 79.895 32.8727C79.511 33.7794 79.095 34.9261 78.647 36.3127C78.8923 36.3021 79.1483 36.2967 79.415 36.2967C79.6923 36.2967 79.975 36.2967 80.263 36.2967C80.3163 36.3181 80.3377 36.3501 80.327 36.3927C80.327 36.4247 80.279 36.4514 80.183 36.4727C79.9163 36.4834 79.6497 36.4941 79.383 36.5047C79.1163 36.5154 78.8443 36.5314 78.567 36.5527C78.535 36.6701 78.4977 36.7767 78.455 36.8727C78.0177 38.2701 77.5697 39.4381 77.111 40.3767C76.6523 41.3261 76.183 42.0834 75.703 42.6487C75.223 43.2247 74.7377 43.6301 74.247 43.8647C73.7457 44.1101 73.239 44.2327 72.727 44.2327C72.3643 44.2327 72.1083 44.1527 71.959 43.9927C71.799 43.8327 71.719 43.6461 71.719 43.4327C71.719 43.3367 71.7403 43.2301 71.783 43.1127C71.8257 43.0061 71.879 42.9101 71.943 42.8247C71.975 42.7927 72.007 42.7874 72.039 42.8087C72.0603 42.8301 72.071 42.8567 72.071 42.8887C72.0283 42.9741 72.0123 43.0701 72.023 43.1767C72.0337 43.2941 72.0817 43.4007 72.167 43.4967C72.2417 43.6034 72.359 43.6887 72.519 43.7527C72.6683 43.8274 72.8657 43.8647 73.111 43.8647C73.367 43.8647 73.623 43.8327 73.879 43.7687C74.1243 43.7047 74.375 43.5821 74.631 43.4007C74.8763 43.2301 75.127 42.9847 75.383 42.6647C75.6283 42.3447 75.8843 41.9234 76.151 41.4007C76.4177 40.8887 76.695 40.2647 76.983 39.5287C77.271 38.7927 77.5697 37.9181 77.879 36.9047C77.9003 36.8514 77.9163 36.8034 77.927 36.7607C77.9377 36.7074 77.9537 36.6541 77.975 36.6007C77.7937 36.6221 77.6123 36.6487 77.431 36.6807C77.2497 36.7021 77.0683 36.7341 76.887 36.7767C76.8337 36.7661 76.8177 36.7394 76.839 36.6967C76.871 36.6541 76.919 36.6114 76.983 36.5687C77.0577 36.5261 77.143 36.4887 77.239 36.4567C77.335 36.4141 77.4257 36.3874 77.511 36.3767C77.5963 36.3661 77.6817 36.3607 77.767 36.3607C77.863 36.3501 77.959 36.3394 78.055 36.3287C78.439 35.1767 78.8497 34.1367 79.287 33.2087C79.735 32.2701 80.2043 31.4701 80.695 30.8087C81.1857 30.1367 81.6923 29.6194 82.215 29.2567C82.7377 28.8941 83.2657 28.7127 83.799 28.7127ZM81.467 36.2487C81.755 36.2487 81.9683 36.3447 82.107 36.5367C82.2457 36.7287 82.315 36.9794 82.315 37.2887C82.315 37.6514 82.2457 38.0141 82.107 38.3767C81.9683 38.7394 81.7923 39.0701 81.579 39.3687C81.3657 39.6567 81.131 39.8914 80.875 40.0727C80.6297 40.2541 80.4003 40.3447 80.187 40.3447C79.931 40.3447 79.7283 40.2434 79.579 40.0407C79.4297 39.8381 79.355 39.5501 79.355 39.1767C79.355 38.8781 79.4137 38.5581 79.531 38.2167C79.6483 37.8754 79.803 37.5607 79.995 37.2727C80.1977 36.9741 80.4217 36.7287 80.667 36.5367C80.923 36.3447 81.1897 36.2487 81.467 36.2487ZM80.507 39.8487C80.667 39.8487 80.8217 39.7954 80.971 39.6887C81.131 39.5714 81.2697 39.4221 81.387 39.2407C81.5043 39.0487 81.595 38.8301 81.659 38.5847C81.7337 38.3394 81.771 38.0834 81.771 37.8167C81.771 37.4967 81.7177 37.2461 81.611 37.0647C81.5043 36.8727 81.3283 36.7767 81.083 36.7767C80.923 36.7767 80.7683 36.8354 80.619 36.9527C80.4697 37.0594 80.3363 37.2087 80.219 37.4007C80.1123 37.5821 80.027 37.8007 79.963 38.0567C79.899 38.3021 79.867 38.5634 79.867 38.8407C79.867 39.5127 80.0803 39.8487 80.507 39.8487ZM84.4048 36.6967C84.4048 36.8567 84.3888 37.0434 84.3568 37.2567C84.3248 37.4701 84.2821 37.6834 84.2288 37.8967C84.4421 37.3847 84.6768 36.9847 84.9328 36.6967C85.1888 36.3981 85.4661 36.2487 85.7648 36.2487C85.8821 36.2487 85.9888 36.2807 86.0848 36.3447C86.1808 36.4087 86.2288 36.4994 86.2288 36.6167C86.2288 36.7021 86.1968 36.8141 86.1328 36.9527C86.0688 37.0807 86.0048 37.1767 85.9408 37.2407C85.8768 37.2834 85.8448 37.2674 85.8448 37.1927C85.8448 37.0114 85.7221 36.9207 85.4768 36.9207C85.1034 36.9207 84.7674 37.2034 84.4688 37.7687C84.1701 38.3234 83.8874 39.0967 83.6208 40.0887C83.5994 40.1954 83.5248 40.2647 83.3968 40.2967C83.2794 40.3287 83.1781 40.3447 83.0928 40.3447C82.9754 40.3447 82.9488 40.2861 83.0128 40.1687C83.1088 39.9447 83.1994 39.7047 83.2848 39.4487C83.3701 39.1821 83.4501 38.9154 83.5247 38.6487C83.6101 38.3821 83.6794 38.1207 83.7328 37.8647C83.7861 37.6087 83.8288 37.3741 83.8608 37.1607C83.9034 36.8407 83.8501 36.6807 83.7008 36.6807C83.6154 36.6807 83.5141 36.7287 83.3968 36.8247C83.2901 36.9207 83.1888 37.0327 83.0928 37.1607C83.0501 37.1821 83.0128 37.1821 82.9808 37.1607C82.9488 37.1287 82.9434 37.0914 82.9648 37.0487C83.1248 36.8461 83.3008 36.6647 83.4928 36.5047C83.6954 36.3341 83.8821 36.2487 84.0528 36.2487C84.2874 36.2487 84.4048 36.3981 84.4048 36.6967ZM91.888 36.6327C91.8987 36.6007 91.9253 36.5687 91.968 36.5367C92.0107 36.4941 92.0587 36.4514 92.112 36.4087C92.176 36.3661 92.2347 36.3341 92.288 36.3127C92.352 36.2807 92.4 36.2647 92.432 36.2647C92.528 36.2647 92.5653 36.3021 92.544 36.3767C92.3093 37.0381 92.08 37.6834 91.856 38.3127C91.632 38.9314 91.392 39.5767 91.136 40.2487C90.848 40.9954 90.5387 41.6194 90.208 42.1207C89.888 42.6327 89.5467 43.0434 89.184 43.3527C88.832 43.6727 88.464 43.9021 88.08 44.0407C87.696 44.1794 87.3013 44.2487 86.896 44.2487C86.3307 44.2487 85.904 44.1047 85.616 43.8167C85.3173 43.5394 85.168 43.1927 85.168 42.7767C85.168 42.5847 85.2213 42.3821 85.328 42.1687C85.424 41.9554 85.5787 41.7687 85.792 41.6087C85.824 41.5874 85.856 41.5981 85.888 41.6407C85.9093 41.6834 85.9093 41.7154 85.888 41.7367C85.7173 41.9394 85.632 42.1687 85.632 42.4247C85.632 42.8727 85.76 43.2354 86.016 43.5127C86.272 43.7901 86.6613 43.9287 87.184 43.9287C87.5573 43.9287 87.8987 43.8701 88.208 43.7527C88.528 43.6354 88.8267 43.4274 89.104 43.1287C89.392 42.8301 89.664 42.4301 89.92 41.9287C90.1867 41.4274 90.4587 40.7981 90.736 40.0407C90.8533 39.6887 90.9653 39.3634 91.072 39.0647C91.1893 38.7661 91.3067 38.4567 91.424 38.1367C91.0187 38.7767 90.592 39.2994 90.144 39.7047C89.7067 40.1101 89.3173 40.3287 88.976 40.3607C88.8373 40.3607 88.736 40.2967 88.672 40.1687C88.608 40.0407 88.576 39.8647 88.576 39.6407C88.576 39.4487 88.5973 39.2407 88.64 39.0167C88.6827 38.7821 88.7413 38.5421 88.816 38.2967C88.9013 38.0514 89.0027 37.8061 89.12 37.5607C89.248 37.3047 89.3867 37.0594 89.536 36.8247C89.4187 36.9101 89.296 37.0061 89.168 37.1127C89.04 37.2087 88.9333 37.2994 88.848 37.3847C88.816 37.4061 88.784 37.4007 88.752 37.3687C88.7307 37.3261 88.7307 37.2887 88.752 37.2567C88.9013 37.1074 89.104 36.9367 89.36 36.7447C89.616 36.5527 89.8667 36.3927 90.112 36.2647C90.2187 36.2647 90.2613 36.3127 90.24 36.4087C90.08 36.6221 89.9307 36.8621 89.792 37.1287C89.664 37.3847 89.552 37.6461 89.456 37.9127C89.36 38.1687 89.2853 38.4247 89.232 38.6807C89.1787 38.9367 89.152 39.1661 89.152 39.3687C89.152 39.6674 89.2533 39.8167 89.456 39.8167C89.6267 39.8167 89.8293 39.7047 90.064 39.4807C90.3093 39.2461 90.5493 38.9687 90.784 38.6487C91.0293 38.3181 91.248 37.9714 91.44 37.6087C91.6427 37.2354 91.792 36.9101 91.888 36.6327ZM95.0764 36.2487C95.3644 36.2487 95.5777 36.3447 95.7164 36.5367C95.855 36.7287 95.9244 36.9794 95.9244 37.2887C95.9244 37.6514 95.855 38.0141 95.7164 38.3767C95.5777 38.7394 95.4017 39.0701 95.1884 39.3687C94.975 39.6567 94.7404 39.8914 94.4844 40.0727C94.239 40.2541 94.0097 40.3447 93.7964 40.3447C93.5404 40.3447 93.3377 40.2434 93.1884 40.0407C93.039 39.8381 92.9644 39.5501 92.9644 39.1767C92.9644 38.8781 93.023 38.5581 93.1404 38.2167C93.2577 37.8754 93.4124 37.5607 93.6044 37.2727C93.807 36.9741 94.031 36.7287 94.2764 36.5367C94.5324 36.3447 94.799 36.2487 95.0764 36.2487ZM94.1164 39.8487C94.2764 39.8487 94.431 39.7954 94.5804 39.6887C94.7404 39.5714 94.879 39.4221 94.9964 39.2407C95.1137 39.0487 95.2044 38.8301 95.2684 38.5847C95.343 38.3394 95.3804 38.0834 95.3804 37.8167C95.3804 37.4967 95.327 37.2461 95.2204 37.0647C95.1137 36.8727 94.9377 36.7767 94.6924 36.7767C94.5324 36.7767 94.3777 36.8354 94.2284 36.9527C94.079 37.0594 93.9457 37.2087 93.8284 37.4007C93.7217 37.5821 93.6364 37.8007 93.5724 38.0567C93.5084 38.3021 93.4764 38.5634 93.4764 38.8407C93.4764 39.5127 93.6897 39.8487 94.1164 39.8487ZM97.1181 40.3447C96.9795 40.3447 96.8568 40.2807 96.7501 40.1527C96.6435 40.0141 96.5901 39.8381 96.5901 39.6247C96.5901 39.4541 96.6115 39.2567 96.6541 39.0327C96.7075 38.7981 96.7715 38.5527 96.8461 38.2967C96.9315 38.0407 97.0328 37.7847 97.1501 37.5287C97.2675 37.2727 97.4008 37.0327 97.5501 36.8087C97.4328 36.8941 97.3101 36.9901 97.1821 37.0967C97.0541 37.1927 96.9475 37.2834 96.8621 37.3687C96.8301 37.3901 96.8035 37.3847 96.7821 37.3527C96.7608 37.3101 96.7555 37.2727 96.7661 37.2407C96.8408 37.1661 96.9368 37.0807 97.0541 36.9847C97.1715 36.8887 97.2941 36.7927 97.4221 36.6967C97.5608 36.6007 97.6995 36.5101 97.8381 36.4247C97.9875 36.3287 98.1261 36.2487 98.2541 36.1847C98.2968 36.1741 98.3288 36.1847 98.3501 36.2167C98.3821 36.2487 98.3928 36.2861 98.3821 36.3287C98.0408 36.7661 97.7635 37.2514 97.5501 37.7847C97.3475 38.3074 97.2461 38.8087 97.2461 39.2887C97.2461 39.5981 97.3368 39.7527 97.5181 39.7527C97.6568 39.7527 97.8275 39.6621 98.0301 39.4807C98.2435 39.2887 98.4621 39.0434 98.6861 38.7447C98.9101 38.4354 99.1341 38.0887 99.3581 37.7047C99.5928 37.3207 99.8061 36.9314 99.9981 36.5367C100.03 36.4621 100.089 36.3981 100.174 36.3447C100.27 36.2807 100.371 36.2487 100.478 36.2487C100.617 36.2487 100.665 36.2914 100.622 36.3767C100.473 36.6541 100.339 36.9154 100.222 37.1607C100.105 37.3954 100.009 37.6301 99.9341 37.8647C99.8595 38.0994 99.8008 38.3394 99.7581 38.5847C99.7261 38.8301 99.7101 39.0967 99.7101 39.3847C99.7101 39.7261 99.8061 39.8967 99.9981 39.8967C100.083 39.8967 100.179 39.8541 100.286 39.7687C100.393 39.6727 100.499 39.5501 100.606 39.4007C100.638 39.3794 100.67 39.3794 100.702 39.4007C100.734 39.4221 100.739 39.4594 100.718 39.5127C100.569 39.7367 100.393 39.9341 100.19 40.1047C99.9981 40.2647 99.8115 40.3447 99.6301 40.3447C99.4915 40.3447 99.3741 40.2754 99.2781 40.1367C99.1821 39.9981 99.1341 39.8114 99.1341 39.5767C99.1341 39.3207 99.1555 39.0487 99.1981 38.7607C99.2515 38.4621 99.3315 38.1634 99.4381 37.8647C99.2355 38.2594 99.0221 38.6114 98.7981 38.9207C98.5741 39.2194 98.3555 39.4754 98.1421 39.6887C97.9395 39.9021 97.7475 40.0674 97.5661 40.1847C97.3848 40.2914 97.2355 40.3447 97.1181 40.3447Z" fill="white"/>
</svg>
