<svg width="134" height="48" viewBox="0 0 134 48" fill="none" xmlns="http://www.w3.org/2000/svg">
<path d="M15.1128 25C15.0208 25.046 14.7831 25.1073 14.3998 25.184C14.0318 25.276 13.6868 25.322 13.3648 25.322C13.0581 25.322 12.8818 25.207 12.8358 24.977C12.5598 24.0263 12.1458 22.171 11.5938 19.411C11.0418 16.6357 10.4821 14.121 9.9148 11.867C9.3628 9.613 8.82613 8.118 8.3048 7.382C8.9488 6.98333 9.48546 6.784 9.9148 6.784C10.7121 6.784 11.2641 7.23633 11.5708 8.141C11.8928 9.04567 12.4141 11.5143 13.1348 15.547C13.1808 15.915 13.4031 17.0727 13.8018 19.02C14.2158 20.952 14.4688 22.171 14.5608 22.677C15.5728 20.4383 16.6998 17.456 17.9418 13.73C19.1838 9.98867 19.8048 7.55833 19.8048 6.439C21.3075 6.715 22.0588 7.28233 22.0588 8.141C22.0588 8.76967 21.6218 10.1037 20.7478 12.143C19.8891 14.167 18.8465 16.5053 17.6198 19.158C16.4085 21.7953 15.5728 23.7427 15.1128 25ZM28.7274 12.925C27.8074 12.925 27.0254 13.454 26.3814 14.512C25.7527 15.57 25.331 16.812 25.1164 18.238H25.7604C26.573 18.238 27.2784 18.123 27.8764 17.893C28.4744 17.663 28.9344 17.364 29.2564 16.996C29.8697 16.2907 30.1764 15.4933 30.1764 14.604C30.1764 14.098 30.0537 13.6917 29.8084 13.385C29.5784 13.0783 29.218 12.925 28.7274 12.925ZM31.9704 22.24C31.265 23.39 30.4907 24.195 29.6474 24.655C28.804 25.115 27.8227 25.345 26.7034 25.345C25.5994 25.345 24.6334 24.8543 23.8054 23.873C22.9774 22.8917 22.5634 21.5117 22.5634 19.733C22.5634 17.709 23.1077 15.8997 24.1964 14.305C24.733 13.5383 25.4307 12.9173 26.2894 12.442C27.1634 11.9667 28.1217 11.729 29.1644 11.729C31.4644 11.729 32.6144 12.8407 32.6144 15.064C32.6144 16.398 32.093 17.4483 31.0504 18.215C30.023 18.9663 28.827 19.342 27.4624 19.342C26.5577 19.342 25.745 19.2577 25.0244 19.089C25.009 19.2423 25.0014 19.48 25.0014 19.802C25.0014 22.516 25.8064 23.873 27.4164 23.873C28.9344 23.873 30.1687 23.1217 31.1194 21.619C31.6867 21.6957 31.9704 21.9027 31.9704 22.24ZM38.2952 17.525C38.8472 15.5317 39.5065 14.0673 40.2732 13.132C41.0552 12.1813 41.7758 11.706 42.4352 11.706C43.1098 11.706 43.6158 11.959 43.9532 12.465C44.2905 12.9557 44.4592 13.5843 44.4592 14.351C44.4592 15.1177 44.2598 15.7847 43.8612 16.352C43.4625 16.904 42.8798 17.18 42.1132 17.18C41.8678 17.18 41.6762 17.1647 41.5382 17.134C42.0595 16.3827 42.3202 15.616 42.3202 14.834C42.3202 14.282 42.0978 14.006 41.6532 14.006C41.3005 14.006 40.9248 14.213 40.5262 14.627C40.1275 15.041 39.7442 15.616 39.3762 16.352C39.0082 17.088 38.7015 18.0463 38.4562 19.227C38.2108 20.4077 38.0882 21.6803 38.0882 23.045C38.0882 23.1983 38.1265 23.85 38.2032 25C37.8045 25.0307 37.5745 25.046 37.5132 25.046C36.1638 25.046 35.4892 24.3867 35.4892 23.068C35.4892 22.7613 35.6502 21.5807 35.9722 19.526C36.2942 17.4713 36.4552 15.8383 36.4552 14.627C36.4552 13.4003 36.3248 12.2733 36.0642 11.246C36.9688 11.5987 37.5975 12.1047 37.9502 12.764C38.3182 13.408 38.5022 14.167 38.5022 15.041C38.5022 15.8997 38.4332 16.7277 38.2952 17.525ZM50.6897 12.856C50.1837 12.856 49.7237 13.017 49.3097 13.339C48.911 13.661 48.7117 14.1057 48.7117 14.673C48.7117 15.225 48.8957 15.7463 49.2637 16.237C49.647 16.7277 50.107 17.1647 50.6437 17.548C51.1803 17.9313 51.7247 18.3223 52.2767 18.721C53.5647 19.6717 54.2087 20.6913 54.2087 21.78C54.2087 22.8687 53.7717 23.758 52.8977 24.448C52.0237 25.1227 50.9043 25.46 49.5397 25.46C48.1903 25.46 47.14 25.1917 46.3887 24.655C45.6527 24.1183 45.2847 23.4897 45.2847 22.769C45.2847 22.033 45.4687 21.458 45.8367 21.044C46.2047 20.63 46.6493 20.423 47.1707 20.423C47.4467 20.423 47.7073 20.4843 47.9527 20.607C47.6153 21.0363 47.4467 21.5423 47.4467 22.125C47.4467 22.7077 47.623 23.1983 47.9757 23.597C48.3437 23.9957 48.842 24.195 49.4707 24.195C50.1147 24.195 50.659 24.034 51.1037 23.712C51.5483 23.3747 51.7707 22.953 51.7707 22.447C51.7707 21.941 51.6403 21.4963 51.3797 21.113C51.119 20.7297 50.7893 20.4 50.3907 20.124C50.0073 19.848 49.5857 19.5413 49.1257 19.204C48.6657 18.8667 48.2363 18.537 47.8377 18.215C47.4543 17.8777 47.1323 17.4637 46.8717 16.973C46.611 16.467 46.4807 15.915 46.4807 15.317C46.4807 14.2283 46.8947 13.339 47.7227 12.649C48.5507 11.9437 49.5933 11.591 50.8507 11.591C52.108 11.591 53.028 11.8517 53.6107 12.373C54.1933 12.8943 54.4847 13.4847 54.4847 14.144C54.4847 14.788 54.3237 15.3247 54.0017 15.754C53.6797 16.168 53.2657 16.375 52.7597 16.375C52.5143 16.375 52.2307 16.306 51.9087 16.168C52.3073 15.6773 52.5067 15.1483 52.5067 14.581C52.5067 14.0137 52.3303 13.5843 51.9777 13.293C51.6403 13.0017 51.211 12.856 50.6897 12.856ZM66.1676 17.456C66.1676 15.9533 65.9759 14.88 65.5926 14.236C65.2246 13.5767 64.6879 13.247 63.9826 13.247C63.2926 13.247 62.5949 13.592 61.8896 14.282C61.1843 14.9567 60.6246 15.8 60.2106 16.812C59.8119 17.8087 59.6126 18.8513 59.6126 19.94C59.6126 21.0133 59.8196 21.9487 60.2336 22.746C60.6476 23.528 61.2763 23.919 62.1196 23.919C63.3156 23.919 64.2893 23.2137 65.0406 21.803C65.7919 20.3923 66.1676 18.9433 66.1676 17.456ZM59.4976 16.559C60.0803 14.903 60.8623 13.6993 61.8436 12.948C62.8403 12.1813 63.8446 11.798 64.8566 11.798C65.8839 11.798 66.7349 12.2503 67.4096 13.155C68.0843 14.0443 68.4216 15.2557 68.4216 16.789C68.4216 18.4757 68.0996 20.0397 67.4556 21.481C66.7349 23.0757 65.6923 24.1873 64.3276 24.816C63.5916 25.1687 62.7789 25.345 61.8896 25.345C60.6476 25.345 59.5589 24.8313 58.6236 23.804C57.6883 22.7613 57.2206 21.2817 57.2206 19.365C57.2206 17.433 57.6346 15.7617 58.4626 14.351C59.2906 12.9403 60.4176 11.959 61.8436 11.407C62.1503 11.407 62.3036 11.5603 62.3036 11.867C60.7856 12.8637 59.8503 14.4277 59.4976 16.559ZM86.8949 6.554C87.7536 6.63067 88.3669 6.899 88.7349 7.359C89.1029 7.80367 89.2869 8.42467 89.2869 9.222C89.2869 10.004 89.0339 12.1277 88.5279 15.593C88.0219 19.0583 87.7689 21.4887 87.7689 22.884C87.7689 24.264 87.8762 25.207 88.0909 25.713C87.0789 25.3757 86.3736 24.9233 85.9749 24.356C85.5916 23.7887 85.3999 23.114 85.3999 22.332C85.3999 21.55 85.5686 19.9017 85.9059 17.387C86.2586 14.8723 86.4886 12.9557 86.5959 11.637C85.9672 12.8483 84.9169 14.5657 83.4449 16.789C81.9882 19.0123 81.1449 20.308 80.9149 20.676C80.5469 20.8907 80.1636 20.998 79.7649 20.998C79.0442 20.998 78.6379 20.8677 78.5459 20.607C78.3772 20.1777 78.1089 19.4953 77.7409 18.56C77.3882 17.6093 77.0969 16.835 76.8669 16.237C76.1922 14.5503 75.5866 13.132 75.0499 11.982C75.0346 12.0893 74.8429 13.569 74.4749 16.421C74.1222 19.2577 73.9459 21.5193 73.9459 23.206C73.9459 23.6813 73.9766 24.3177 74.0379 25.115C72.4432 25.115 71.6459 24.632 71.6459 23.666C71.6459 23.528 71.9372 21.4503 72.5199 17.433C73.1179 13.4003 73.4169 10.5943 73.4169 9.015V8.9C72.9722 8.17933 72.5046 7.589 72.0139 7.129C72.3819 6.73033 72.8342 6.531 73.3709 6.531C74.4136 6.531 75.2492 7.12133 75.8779 8.302C76.5219 9.46733 77.9402 12.9403 80.1329 18.721C80.1789 18.813 80.2096 18.882 80.2249 18.928C80.3629 18.7133 80.7386 18.1613 81.3519 17.272C81.9652 16.3827 82.4252 15.7003 82.7319 15.225C83.0539 14.7343 83.4909 14.0443 84.0429 13.155C84.5949 12.2503 85.0242 11.476 85.3309 10.832C86.1896 9.084 86.7109 7.658 86.8949 6.554ZM96.3193 16.007C95.8747 16.7737 95.5297 17.5633 95.2843 18.376C95.0543 19.1733 94.9393 19.94 94.9393 20.676C94.9393 21.412 95.1003 22.0407 95.4223 22.562C95.7597 23.068 96.235 23.321 96.8483 23.321C97.707 23.321 98.512 22.8533 99.2633 21.918C100.015 20.9673 100.59 19.825 100.988 18.491C101.402 17.1417 101.609 15.8997 101.609 14.765C101.609 13.615 101.563 12.672 101.471 11.936C101.839 11.9053 102.069 11.89 102.161 11.89C103.465 11.89 104.116 12.557 104.116 13.891C104.116 14.1823 103.932 15.3707 103.564 17.456C103.196 19.526 103.012 21.1897 103.012 22.447C103.012 23.689 103.25 24.793 103.725 25.759C102.759 25.5597 102.054 25.138 101.609 24.494C101.18 23.8347 100.965 22.8917 100.965 21.665C100.965 21.4503 100.996 21.0363 101.057 20.423C100.643 21.8797 99.915 23.0527 98.8723 23.942C97.8297 24.8313 96.8023 25.276 95.7903 25.276C94.7937 25.276 93.9887 24.9003 93.3753 24.149C92.762 23.3823 92.4553 22.332 92.4553 20.998C92.4553 19.6487 92.7007 18.3377 93.1913 17.065C93.6973 15.777 94.4487 14.6653 95.4453 13.73C96.4573 12.7947 97.5843 12.327 98.8263 12.327C99.363 12.327 99.9533 12.4343 100.597 12.649C99.6927 12.879 98.8647 13.3007 98.1133 13.914C97.362 14.5273 96.764 15.225 96.3193 16.007ZM110.597 17.525C111.149 15.5317 111.808 14.0673 112.575 13.132C113.357 12.1813 114.078 11.706 114.737 11.706C115.412 11.706 115.918 11.959 116.255 12.465C116.592 12.9557 116.761 13.5843 116.761 14.351C116.761 15.1177 116.562 15.7847 116.163 16.352C115.764 16.904 115.182 17.18 114.415 17.18C114.17 17.18 113.978 17.1647 113.84 17.134C114.361 16.3827 114.622 15.616 114.622 14.834C114.622 14.282 114.4 14.006 113.955 14.006C113.602 14.006 113.227 14.213 112.828 14.627C112.429 15.041 112.046 15.616 111.678 16.352C111.31 17.088 111.003 18.0463 110.758 19.227C110.513 20.4077 110.39 21.6803 110.39 23.045C110.39 23.1983 110.428 23.85 110.505 25C110.106 25.0307 109.876 25.046 109.815 25.046C108.466 25.046 107.791 24.3867 107.791 23.068C107.791 22.7613 107.952 21.5807 108.274 19.526C108.596 17.4713 108.757 15.8383 108.757 14.627C108.757 13.4003 108.627 12.2733 108.366 11.246C109.271 11.5987 109.899 12.1047 110.252 12.764C110.62 13.408 110.804 14.167 110.804 15.041C110.804 15.8997 110.735 16.7277 110.597 17.525ZM125.59 12.396C125.59 13.04 125.468 13.4847 125.222 13.73C124.977 13.9753 124.617 14.098 124.141 14.098H122.485C122.424 14.4967 122.263 15.4473 122.002 16.95C121.481 19.802 121.22 21.9563 121.22 23.413C121.22 24.8697 121.328 25.8357 121.542 26.311C120.668 25.989 120.047 25.506 119.679 24.862C119.311 24.2027 119.127 23.4053 119.127 22.47C119.127 21.5347 119.181 20.653 119.288 19.825C119.411 18.9817 119.58 18.0003 119.794 16.881C120.009 15.7617 120.162 14.8647 120.254 14.19C119.38 14.3127 118.522 14.558 117.678 14.926C117.648 14.6807 117.632 14.4583 117.632 14.259C117.632 13.523 117.878 13.0323 118.368 12.787C118.859 12.5263 119.564 12.396 120.484 12.396C120.592 11.2613 120.645 10.418 120.645 9.866C120.645 9.29867 120.638 8.84633 120.622 8.509C120.622 8.17167 120.622 7.91867 120.622 7.75C121.328 7.85733 121.872 8.17167 122.255 8.693C122.639 9.199 122.83 9.89667 122.83 10.786C122.83 11.246 122.792 11.8057 122.715 12.465C124.049 12.465 124.992 12.2427 125.544 11.798C125.575 12.0127 125.59 12.212 125.59 12.396Z" fill="black"/>
<path d="M38.7103 32.632C38.7103 33.0053 38.8329 33.3253 39.0783 33.592C39.3343 33.848 39.7663 34.0667 40.3743 34.248C40.4063 34.2693 40.4063 34.3067 40.3743 34.36C40.3529 34.4027 40.3156 34.4507 40.2623 34.504C40.2089 34.5573 40.1449 34.6053 40.0703 34.648C40.0063 34.6907 39.9529 34.7173 39.9103 34.728C38.7156 34.6747 37.7876 34.936 37.1263 35.512C36.4649 36.0773 36.1343 36.936 36.1343 38.088C36.1343 38.4613 36.1876 38.808 36.2943 39.128C36.4116 39.448 36.5716 39.7253 36.7743 39.96C36.9876 40.1947 37.2383 40.3813 37.5263 40.52C37.8249 40.648 38.1609 40.712 38.5343 40.712C39.4089 40.712 40.1236 40.5093 40.6783 40.104C41.2329 39.6987 41.6329 39.0427 41.8783 38.136C41.9103 38.0827 41.9423 38.0667 41.9743 38.088C42.0169 38.1093 42.0436 38.152 42.0543 38.216C41.9263 38.8133 41.7716 39.3093 41.5903 39.704C41.4196 40.0987 41.2596 40.328 41.1103 40.392C40.7369 40.5627 40.2836 40.7067 39.7503 40.824C39.2276 40.9413 38.6943 41 38.1503 41C37.7023 41 37.3023 40.9307 36.9503 40.792C36.6089 40.6533 36.3209 40.4667 36.0863 40.232C35.8516 39.9973 35.6703 39.7307 35.5423 39.432C35.4249 39.1227 35.3663 38.8027 35.3663 38.472C35.3663 37.96 35.4569 37.48 35.6383 37.032C35.8303 36.5733 36.0916 36.168 36.4223 35.816C36.7636 35.464 37.1636 35.1653 37.6223 34.92C38.0916 34.6747 38.6036 34.504 39.1583 34.408C38.8169 34.2267 38.5503 34.0133 38.3583 33.768C38.1663 33.5227 38.0703 33.256 38.0703 32.968C38.0703 32.6693 38.1449 32.3867 38.2943 32.12C38.4543 31.8427 38.6676 31.6027 38.9343 31.4C39.2116 31.1867 39.5316 31.016 39.8943 30.888C40.2676 30.76 40.6729 30.696 41.1103 30.696C41.3663 30.696 41.6169 30.7227 41.8623 30.776C42.1076 30.8187 42.3263 30.8827 42.5183 30.968C42.7103 31.0427 42.8596 31.1333 42.9663 31.24C43.0836 31.336 43.1423 31.4373 43.1423 31.544C43.1423 31.6293 43.1209 31.7307 43.0783 31.848C43.0463 31.9547 43.0036 32.0667 42.9503 32.184C42.9076 32.3013 42.8543 32.4133 42.7903 32.52C42.7369 32.616 42.6943 32.6853 42.6623 32.728C42.6409 32.7493 42.6089 32.7547 42.5663 32.744C42.5343 32.7227 42.5236 32.6907 42.5343 32.648C42.5983 32.5307 42.6463 32.4027 42.6783 32.264C42.7103 32.1147 42.6836 31.9707 42.5983 31.832C42.4809 31.64 42.2569 31.448 41.9263 31.256C41.5956 31.064 41.2169 30.968 40.7903 30.968C40.4383 30.968 40.1343 31.016 39.8783 31.112C39.6223 31.208 39.4036 31.336 39.2223 31.496C39.0516 31.656 38.9236 31.8373 38.8383 32.04C38.7529 32.232 38.7103 32.4293 38.7103 32.632ZM43.9445 40.776C43.7952 40.84 43.6458 40.8933 43.4965 40.936C43.3472 40.9787 43.2138 41 43.0965 41C42.9685 41 42.9365 40.9307 43.0005 40.792C43.1818 40.344 43.3365 39.8587 43.4645 39.336C43.5925 38.8027 43.6778 38.328 43.7205 37.912C43.7525 37.5387 43.6938 37.352 43.5445 37.352C43.3952 37.352 43.1978 37.4747 42.9525 37.72C42.8992 37.7413 42.8565 37.736 42.8245 37.704C42.7925 37.672 42.7925 37.6347 42.8245 37.592C43.0698 37.3467 43.2832 37.1707 43.4645 37.064C43.6565 36.9573 43.8325 36.904 43.9925 36.904C44.1205 36.904 44.2058 36.952 44.2485 37.048C44.3018 37.144 44.3285 37.2667 44.3285 37.416C44.3285 37.6187 44.3072 37.8587 44.2645 38.136C44.2218 38.4133 44.1632 38.7067 44.0885 39.016C44.0245 39.3147 43.9498 39.6133 43.8645 39.912C43.7792 40.2 43.6992 40.4613 43.6245 40.696C43.9232 40.6213 44.2218 40.4827 44.5205 40.28C44.8192 40.0773 45.0858 39.8427 45.3205 39.576C45.5552 39.3093 45.7418 39.0213 45.8805 38.712C46.0298 38.392 46.1045 38.072 46.1045 37.752C46.1045 37.4747 46.0138 37.336 45.8325 37.336C45.6832 37.336 45.5498 37.4213 45.4325 37.592C45.4005 37.6133 45.3738 37.608 45.3525 37.576C45.3312 37.544 45.3258 37.512 45.3365 37.48C45.4218 37.3413 45.5392 37.2133 45.6885 37.096C45.8485 36.968 46.0032 36.904 46.1525 36.904C46.2698 36.904 46.3658 36.9573 46.4405 37.064C46.5258 37.1707 46.5685 37.3307 46.5685 37.544C46.5685 37.8533 46.4992 38.1627 46.3605 38.472C46.2325 38.7813 46.0512 39.08 45.8165 39.368C45.5818 39.656 45.3045 39.9227 44.9845 40.168C44.6645 40.4133 44.3178 40.616 43.9445 40.776ZM49.9523 37.608C49.9523 37.7573 49.8936 37.896 49.7763 38.024C49.6589 38.152 49.4989 38.2693 49.2963 38.376C49.0936 38.472 48.8589 38.5627 48.5923 38.648C48.3363 38.7333 48.0643 38.8133 47.7763 38.888C47.7656 39.0053 47.7549 39.1227 47.7443 39.24C47.7443 39.3573 47.7443 39.4853 47.7443 39.624C47.7443 39.8907 47.8029 40.1147 47.9203 40.296C48.0376 40.4773 48.2029 40.568 48.4163 40.568C48.6296 40.568 48.8269 40.5147 49.0082 40.408C49.2003 40.3013 49.3709 40.1573 49.5203 39.976C49.5629 39.9547 49.5949 39.96 49.6163 39.992C49.6376 40.024 49.6376 40.0613 49.6163 40.104C49.4349 40.3493 49.2056 40.5627 48.9283 40.744C48.6616 40.9147 48.3789 41 48.0803 41C47.8029 41 47.5736 40.9093 47.3923 40.728C47.2216 40.5467 47.1363 40.28 47.1363 39.928C47.1363 39.608 47.1949 39.272 47.3123 38.92C47.4296 38.5573 47.5843 38.2267 47.7763 37.928C47.9683 37.6293 48.1869 37.384 48.4323 37.192C48.6883 37 48.9549 36.904 49.2323 36.904C49.4349 36.904 49.6056 36.9787 49.7443 37.128C49.8829 37.2667 49.9523 37.4267 49.9523 37.608ZM48.8963 37.32C48.6509 37.32 48.4323 37.4267 48.2403 37.64C48.0483 37.8533 47.9096 38.1893 47.8243 38.648C48.3363 38.5733 48.7096 38.4667 48.9443 38.328C49.1896 38.1787 49.3123 38.0133 49.3123 37.832C49.3123 37.6827 49.2749 37.56 49.2003 37.464C49.1256 37.368 49.0243 37.32 48.8963 37.32ZM51.8891 37.352C51.8891 37.512 51.8731 37.6987 51.8411 37.912C51.8091 38.1253 51.7665 38.3387 51.7131 38.552C51.9265 38.04 52.1611 37.64 52.4171 37.352C52.6731 37.0533 52.9505 36.904 53.2491 36.904C53.3665 36.904 53.4731 36.936 53.5691 37C53.6651 37.064 53.7131 37.1547 53.7131 37.272C53.7131 37.3573 53.6811 37.4693 53.6171 37.608C53.5531 37.736 53.4891 37.832 53.4251 37.896C53.3611 37.9387 53.3291 37.9227 53.3291 37.848C53.3291 37.6667 53.2065 37.576 52.9611 37.576C52.5878 37.576 52.2518 37.8587 51.9531 38.424C51.6545 38.9787 51.3718 39.752 51.1051 40.744C51.0838 40.8507 51.0091 40.92 50.8811 40.952C50.7638 40.984 50.6625 41 50.5771 41C50.4598 41 50.4331 40.9413 50.4971 40.824C50.5931 40.6 50.6838 40.36 50.7691 40.104C50.8545 39.8373 50.9345 39.5707 51.0091 39.304C51.0945 39.0373 51.1638 38.776 51.2171 38.52C51.2705 38.264 51.3131 38.0293 51.3451 37.816C51.3878 37.496 51.3345 37.336 51.1851 37.336C51.0998 37.336 50.9985 37.384 50.8811 37.48C50.7745 37.576 50.6731 37.688 50.5771 37.816C50.5345 37.8373 50.4971 37.8373 50.4651 37.816C50.4331 37.784 50.4278 37.7467 50.4491 37.704C50.6091 37.5013 50.7851 37.32 50.9771 37.16C51.1798 36.9893 51.3665 36.904 51.5371 36.904C51.7718 36.904 51.8891 37.0533 51.8891 37.352ZM56.9661 37.288C56.9768 37.256 57.0035 37.224 57.0461 37.192C57.0888 37.1493 57.1368 37.1067 57.1901 37.064C57.2541 37.0213 57.3128 36.9893 57.3661 36.968C57.4301 36.936 57.4781 36.92 57.5101 36.92C57.6061 36.92 57.6435 36.9573 57.6221 37.032C57.3875 37.6933 57.1581 38.3387 56.9341 38.968C56.7101 39.5867 56.4701 40.232 56.2141 40.904C55.9261 41.6507 55.6168 42.2747 55.2861 42.776C54.9661 43.288 54.6248 43.6987 54.2621 44.008C53.9101 44.328 53.5421 44.5573 53.1581 44.696C52.7741 44.8347 52.3795 44.904 51.9741 44.904C51.4088 44.904 50.9821 44.76 50.6941 44.472C50.3955 44.1947 50.2461 43.848 50.2461 43.432C50.2461 43.24 50.2995 43.0373 50.4061 42.824C50.5021 42.6107 50.6568 42.424 50.8701 42.264C50.9021 42.2427 50.9341 42.2533 50.9661 42.296C50.9875 42.3387 50.9875 42.3707 50.9661 42.392C50.7955 42.5947 50.7101 42.824 50.7101 43.08C50.7101 43.528 50.8381 43.8907 51.0941 44.168C51.3501 44.4453 51.7395 44.584 52.2621 44.584C52.6355 44.584 52.9768 44.5253 53.2861 44.408C53.6061 44.2907 53.9048 44.0827 54.1821 43.784C54.4701 43.4853 54.7421 43.0853 54.9981 42.584C55.2648 42.0827 55.5368 41.4533 55.8141 40.696C55.9315 40.344 56.0435 40.0187 56.1501 39.72C56.2675 39.4213 56.3848 39.112 56.5021 38.792C56.0968 39.432 55.6701 39.9547 55.2221 40.36C54.7848 40.7653 54.3955 40.984 54.0541 41.016C53.9155 41.016 53.8141 40.952 53.7501 40.824C53.6861 40.696 53.6541 40.52 53.6541 40.296C53.6541 40.104 53.6755 39.896 53.7181 39.672C53.7608 39.4373 53.8195 39.1973 53.8941 38.952C53.9795 38.7067 54.0808 38.4613 54.1981 38.216C54.3261 37.96 54.4648 37.7147 54.6141 37.48C54.4968 37.5653 54.3741 37.6613 54.2461 37.768C54.1181 37.864 54.0115 37.9547 53.9261 38.04C53.8941 38.0613 53.8621 38.056 53.8301 38.024C53.8088 37.9813 53.8088 37.944 53.8301 37.912C53.9795 37.7627 54.1821 37.592 54.4381 37.4C54.6941 37.208 54.9448 37.048 55.1901 36.92C55.2968 36.92 55.3395 36.968 55.3181 37.064C55.1581 37.2773 55.0088 37.5173 54.8701 37.784C54.7421 38.04 54.6301 38.3013 54.5341 38.568C54.4381 38.824 54.3635 39.08 54.3101 39.336C54.2568 39.592 54.2301 39.8213 54.2301 40.024C54.2301 40.3227 54.3315 40.472 54.5341 40.472C54.7048 40.472 54.9075 40.36 55.1421 40.136C55.3875 39.9013 55.6275 39.624 55.8621 39.304C56.1075 38.9733 56.3261 38.6267 56.5181 38.264C56.7208 37.8907 56.8701 37.5653 56.9661 37.288ZM60.8585 36.968C60.9118 36.9893 60.9332 37.0213 60.9225 37.064C60.9118 37.1067 60.8638 37.1333 60.7785 37.144C60.6078 37.1547 60.4158 37.1653 60.2025 37.176C59.9998 37.1867 59.7918 37.2027 59.5785 37.224C59.3652 37.7573 59.1892 38.2693 59.0505 38.76C58.9118 39.2507 58.8425 39.656 58.8425 39.976C58.8425 40.3387 58.9812 40.52 59.2585 40.52C59.5358 40.52 59.8398 40.2747 60.1705 39.784C60.2025 39.7627 60.2345 39.768 60.2665 39.8C60.2985 39.8213 60.3092 39.8587 60.2985 39.912C60.2025 40.0613 60.0905 40.2053 59.9625 40.344C59.8452 40.472 59.7225 40.584 59.5945 40.68C59.4665 40.776 59.3438 40.856 59.2265 40.92C59.1092 40.9733 59.0132 41 58.9385 41C58.7038 41 58.5278 40.9307 58.4105 40.792C58.3038 40.6427 58.2505 40.4667 58.2505 40.264C58.2505 39.912 58.3252 39.4693 58.4745 38.936C58.6238 38.4027 58.8105 37.8533 59.0345 37.288C58.8958 37.3093 58.7625 37.3307 58.6345 37.352C58.5065 37.3733 58.3838 37.3947 58.2665 37.416C58.2132 37.4053 58.1972 37.3787 58.2185 37.336C58.2505 37.2933 58.2985 37.2507 58.3625 37.208C58.4372 37.1653 58.5225 37.128 58.6185 37.096C58.7145 37.0533 58.8052 37.032 58.8905 37.032C58.9438 37.0213 58.9865 37.016 59.0185 37.016C59.0612 37.016 59.1038 37.016 59.1465 37.016C59.2958 36.6853 59.4452 36.3707 59.5945 36.072C59.7438 35.7627 59.8932 35.48 60.0425 35.224C60.1065 35.16 60.1758 35.1067 60.2505 35.064C60.3358 35.0107 60.4158 34.9787 60.4905 34.968C60.5652 34.9467 60.6238 34.9413 60.6665 34.952C60.7092 34.952 60.7252 34.968 60.7145 35C60.5332 35.2773 60.3518 35.5867 60.1705 35.928C59.9998 36.2693 59.8345 36.6213 59.6745 36.984C59.8665 36.984 60.0585 36.984 60.2505 36.984C60.4425 36.9733 60.6452 36.968 60.8585 36.968ZM60.7129 40.856C61.1929 39.0213 61.7315 37.368 62.3289 35.896C62.9262 34.424 63.5502 33.1707 64.2009 32.136C64.8622 31.1013 65.5342 30.3067 66.2169 29.752C66.8995 29.1867 67.5609 28.904 68.2009 28.904C68.4355 28.904 68.6275 28.952 68.7769 29.048C68.9369 29.1333 69.0435 29.2453 69.0969 29.384C69.1609 29.5227 69.1769 29.6773 69.1449 29.848C69.1235 30.0187 69.0489 30.184 68.9209 30.344C68.8995 30.376 68.8729 30.3867 68.8409 30.376C68.8089 30.3653 68.7929 30.3387 68.7929 30.296C68.8355 30.0827 68.7715 29.88 68.6009 29.688C68.4302 29.496 68.1582 29.4 67.7849 29.4C67.2835 29.4 66.7715 29.5973 66.2489 29.992C65.7262 30.3867 65.2035 30.9947 64.6809 31.816C64.1582 32.6267 63.6409 33.6507 63.1289 34.888C62.6275 36.1253 62.1422 37.592 61.6729 39.288C61.8435 38.9573 62.0409 38.648 62.2649 38.36C62.4889 38.0613 62.7182 37.8053 62.9529 37.592C63.1875 37.3787 63.4222 37.2133 63.6569 37.096C63.9022 36.968 64.1369 36.904 64.3609 36.904C64.4889 36.904 64.5849 36.936 64.6489 37C64.7129 37.064 64.7449 37.1387 64.7449 37.224C64.7449 37.3627 64.6969 37.5173 64.6009 37.688C64.3769 38.0827 64.1902 38.488 64.0409 38.904C63.9022 39.32 63.8329 39.6987 63.8329 40.04C63.8329 40.1893 63.8489 40.312 63.8809 40.408C63.9235 40.504 63.9875 40.552 64.0729 40.552C64.1795 40.552 64.2915 40.4987 64.4089 40.392C64.5369 40.2747 64.6489 40.1467 64.7449 40.008C64.7769 39.9867 64.8089 39.992 64.8409 40.024C64.8729 40.0453 64.8835 40.0773 64.8729 40.12C64.8089 40.216 64.7289 40.3173 64.6329 40.424C64.5369 40.52 64.4302 40.616 64.3129 40.712C64.2062 40.7973 64.0942 40.8667 63.9769 40.92C63.8595 40.9733 63.7529 41 63.6569 41C63.3902 41 63.2569 40.776 63.2569 40.328C63.2569 39.944 63.3209 39.528 63.4489 39.08C63.5769 38.6213 63.7315 38.216 63.9129 37.864C63.9769 37.7573 64.0089 37.6667 64.0089 37.592C64.0089 37.496 63.9502 37.448 63.8329 37.448C63.6409 37.448 63.4329 37.5227 63.2089 37.672C62.9849 37.8213 62.7555 38.04 62.5209 38.328C62.2862 38.616 62.0622 38.968 61.8489 39.384C61.6355 39.7893 61.4435 40.248 61.2729 40.76C61.2515 40.8347 61.1929 40.8933 61.0969 40.936C61.0115 40.9787 60.9262 41 60.8409 41C60.7235 41 60.6809 40.952 60.7129 40.856ZM65.8008 38.024C65.7688 38.0453 65.7368 38.04 65.7048 38.008C65.6834 37.9653 65.6834 37.928 65.7048 37.896C65.8541 37.7467 66.0568 37.576 66.3128 37.384C66.5688 37.192 66.8248 37.032 67.0807 36.904C67.1661 36.904 67.2088 36.952 67.2088 37.048C67.0701 37.2933 66.9314 37.56 66.7928 37.848C66.6648 38.136 66.5474 38.424 66.4408 38.712C66.3448 38.9893 66.2648 39.2613 66.2008 39.528C66.1368 39.784 66.1048 39.9973 66.1048 40.168C66.1048 40.392 66.1794 40.504 66.3288 40.504C66.4461 40.504 66.5581 40.456 66.6648 40.36C66.7821 40.2533 66.9154 40.1147 67.0648 39.944C67.0861 39.9227 67.1128 39.928 67.1448 39.96C67.1768 39.992 67.1821 40.0293 67.1608 40.072C66.9688 40.3067 66.7608 40.52 66.5368 40.712C66.3234 40.904 66.1208 41 65.9288 41C65.6514 41 65.5128 40.824 65.5128 40.472C65.5128 40.2693 65.5448 40.0293 65.6088 39.752C65.6834 39.464 65.7741 39.176 65.8808 38.888C65.9874 38.6 66.1048 38.3227 66.2328 38.056C66.3714 37.7893 66.5048 37.56 66.6328 37.368C66.5154 37.4533 66.3661 37.5653 66.1848 37.704C66.0141 37.832 65.8861 37.9387 65.8008 38.024ZM67.2408 36.216C67.2088 36.248 67.1768 36.2533 67.1448 36.232C67.1234 36.2 67.1074 36.1627 67.0968 36.12C67.0861 36.0667 67.0807 36.008 67.0807 35.944C67.0807 35.88 67.0968 35.8267 67.1288 35.784C67.4061 35.4 67.7954 34.9893 68.2968 34.552C68.3288 34.5413 68.3608 34.552 68.3928 34.584C68.4248 34.6053 68.4301 34.6267 68.4088 34.648C68.1848 34.8507 67.9714 35.096 67.7688 35.384C67.5661 35.6613 67.3901 35.9387 67.2408 36.216ZM71.8714 39.976C71.9034 39.9547 71.9354 39.9547 71.9674 39.976C71.9994 39.9973 72.01 40.0293 71.9994 40.072C71.818 40.3173 71.6154 40.536 71.3914 40.728C71.178 40.9093 70.9754 41 70.7834 41C70.4527 41 70.2874 40.7867 70.2874 40.36C70.2874 39.9973 70.3514 39.5973 70.4794 39.16C70.6074 38.712 70.7834 38.264 71.0074 37.816C71.05 37.7413 71.0714 37.6667 71.0714 37.592C71.0714 37.4747 71.018 37.416 70.9114 37.416C70.5167 37.416 70.0794 37.688 69.5994 38.232C69.13 38.776 68.6927 39.6293 68.2874 40.792C68.266 40.856 68.2074 40.9093 68.1114 40.952C68.0154 40.984 67.9247 41 67.8394 41C67.722 41 67.6794 40.952 67.7114 40.856C67.8927 40.3973 68.0794 39.88 68.2714 39.304C68.474 38.728 68.65 38.1573 68.7994 37.592C68.842 37.3893 68.8047 37.288 68.6874 37.288C68.5807 37.288 68.474 37.3413 68.3674 37.448C68.2607 37.5547 68.1487 37.6933 68.0314 37.864C68.01 37.8853 67.9834 37.88 67.9514 37.848C67.93 37.816 67.9247 37.784 67.9354 37.752C68.0527 37.5707 68.2127 37.384 68.4154 37.192C68.618 37 68.8367 36.904 69.0714 36.904C69.338 36.904 69.4287 37.0853 69.3434 37.448C69.3007 37.6827 69.242 37.9333 69.1674 38.2C69.0927 38.456 69.0127 38.712 68.9274 38.968C69.0767 38.68 69.2527 38.408 69.4554 38.152C69.658 37.896 69.866 37.6773 70.0794 37.496C70.3034 37.3147 70.522 37.1707 70.7354 37.064C70.9594 36.9573 71.1674 36.904 71.3594 36.904C71.4874 36.904 71.5834 36.936 71.6474 37C71.722 37.064 71.7594 37.1387 71.7594 37.224C71.7594 37.3627 71.7274 37.5013 71.6634 37.64C71.4394 38.0453 71.2474 38.472 71.0874 38.92C70.938 39.3573 70.8634 39.7627 70.8634 40.136C70.8634 40.4027 70.9487 40.536 71.1194 40.536C71.3434 40.536 71.594 40.3493 71.8714 39.976ZM75.6316 36.68C75.6636 36.6587 75.6956 36.664 75.7276 36.696C75.7596 36.7173 75.765 36.7493 75.7436 36.792C75.6583 36.92 75.5516 37.0373 75.4236 37.144C75.2956 37.24 75.1356 37.2827 74.9436 37.272C75.0396 37.432 75.0876 37.64 75.0876 37.896C75.0876 38.1413 75.0503 38.3653 74.9756 38.568C74.901 38.7707 74.8156 38.9627 74.7196 39.144C74.6236 39.3253 74.5223 39.496 74.4156 39.656C74.3196 39.816 74.2396 39.9813 74.1756 40.152C74.1223 40.3227 74.0956 40.4987 74.0956 40.68C74.1063 40.8507 74.1703 41.0427 74.2876 41.256C74.3836 41.4373 74.469 41.5973 74.5436 41.736C74.629 41.8853 74.6983 42.024 74.7516 42.152C74.8156 42.2907 74.8583 42.4293 74.8796 42.568C74.9116 42.7067 74.9276 42.856 74.9276 43.016C74.9276 43.272 74.8743 43.512 74.7676 43.736C74.661 43.9707 74.5063 44.1733 74.3036 44.344C74.101 44.5253 73.8556 44.664 73.5676 44.76C73.2796 44.8667 72.9543 44.92 72.5916 44.92C72.2183 44.92 71.8823 44.8667 71.5836 44.76C71.285 44.6533 71.0343 44.5093 70.8316 44.328C70.6183 44.1573 70.4583 43.9547 70.3516 43.72C70.245 43.496 70.1916 43.2613 70.1916 43.016C70.1916 42.696 70.309 42.4133 70.5436 42.168C70.7676 41.9333 71.093 41.7573 71.5196 41.64C71.573 41.64 71.6103 41.656 71.6316 41.688C71.6423 41.7307 71.6316 41.768 71.5996 41.8C71.3756 41.8853 71.1943 42.0133 71.0556 42.184C70.917 42.3547 70.8476 42.584 70.8476 42.872C70.8476 43.416 71.0343 43.8533 71.4076 44.184C71.781 44.5147 72.2716 44.68 72.8796 44.68C73.3916 44.68 73.7703 44.5467 74.0156 44.28C74.261 44.024 74.3836 43.688 74.3836 43.272C74.3836 43.0267 74.3463 42.808 74.2716 42.616C74.197 42.424 74.085 42.2053 73.9356 41.96C73.733 41.6187 73.6423 41.2933 73.6636 40.984C73.6956 40.664 73.8076 40.3333 73.9996 39.992C74.021 39.9493 74.0423 39.912 74.0636 39.88C74.0956 39.8373 74.1223 39.7893 74.1436 39.736C74.0263 39.864 73.8876 39.976 73.7276 40.072C73.5783 40.168 73.4503 40.216 73.3436 40.216C72.821 40.216 72.5596 39.8747 72.5596 39.192C72.5596 38.968 72.6023 38.7227 72.6876 38.456C72.773 38.1893 72.8903 37.944 73.0396 37.72C73.1996 37.4853 73.381 37.2933 73.5836 37.144C73.797 36.9947 74.0316 36.92 74.2876 36.92C74.661 36.92 74.949 36.9093 75.1516 36.888C75.3543 36.856 75.5143 36.7867 75.6316 36.68ZM74.3516 39.352C74.4156 39.2027 74.469 39.048 74.5116 38.888C74.5543 38.728 74.5756 38.568 74.5756 38.408C74.5756 38.0987 74.5223 37.8587 74.4156 37.688C74.3196 37.5067 74.1596 37.416 73.9356 37.416C73.6796 37.416 73.461 37.544 73.2796 37.8C73.109 38.056 73.0236 38.4187 73.0236 38.888C73.0236 39.1973 73.0716 39.4213 73.1676 39.56C73.2743 39.6987 73.429 39.768 73.6316 39.768C73.749 39.768 73.877 39.7307 74.0156 39.656C74.1543 39.5813 74.2663 39.48 74.3516 39.352ZM85.2053 29.368C85.4079 29.368 85.5786 29.4107 85.7173 29.496C85.8559 29.5813 85.9573 29.6933 86.0213 29.832C86.0959 29.9707 86.1333 30.1253 86.1333 30.296C86.1333 30.456 86.0959 30.616 86.0213 30.776C85.9999 30.808 85.9733 30.8187 85.9413 30.808C85.9093 30.7973 85.8826 30.776 85.8612 30.744C85.8399 30.5307 85.7386 30.344 85.5573 30.184C85.3866 30.0133 85.1146 29.928 84.7413 29.928C84.3359 29.928 83.9466 30.0347 83.5733 30.248C83.2106 30.4613 82.8373 30.8347 82.4533 31.368C82.0799 31.9013 81.6959 32.6213 81.3013 33.528C80.9173 34.4347 80.5013 35.5813 80.0533 36.968C80.2986 36.9573 80.5546 36.952 80.8213 36.952C81.0986 36.952 81.3813 36.952 81.6693 36.952C81.7226 36.9733 81.7439 37.0053 81.7333 37.048C81.7333 37.08 81.6853 37.1067 81.5893 37.128C81.3226 37.1387 81.0559 37.1493 80.7893 37.16C80.5226 37.1707 80.2506 37.1867 79.9733 37.208C79.9413 37.3253 79.9039 37.432 79.8613 37.528C79.4239 38.9253 78.9759 40.0933 78.5173 41.032C78.0586 41.9813 77.5892 42.7387 77.1092 43.304C76.6292 43.88 76.1439 44.2853 75.6532 44.52C75.1519 44.7653 74.6452 44.888 74.1332 44.888C73.7706 44.888 73.5146 44.808 73.3652 44.648C73.2052 44.488 73.1252 44.3013 73.1252 44.088C73.1252 43.992 73.1466 43.8853 73.1892 43.768C73.2319 43.6613 73.2852 43.5653 73.3492 43.48C73.3812 43.448 73.4132 43.4427 73.4452 43.464C73.4666 43.4853 73.4772 43.512 73.4772 43.544C73.4346 43.6293 73.4186 43.7253 73.4292 43.832C73.4399 43.9493 73.4879 44.056 73.5732 44.152C73.6479 44.2587 73.7652 44.344 73.9252 44.408C74.0746 44.4827 74.2719 44.52 74.5172 44.52C74.7732 44.52 75.0292 44.488 75.2852 44.424C75.5306 44.36 75.7812 44.2373 76.0372 44.056C76.2826 43.8853 76.5332 43.64 76.7892 43.32C77.0346 43 77.2906 42.5787 77.5572 42.056C77.8239 41.544 78.1013 40.92 78.3893 40.184C78.6773 39.448 78.9759 38.5733 79.2853 37.56C79.3066 37.5067 79.3226 37.4587 79.3333 37.416C79.3439 37.3627 79.3599 37.3093 79.3813 37.256C79.1999 37.2773 79.0186 37.304 78.8372 37.336C78.6559 37.3573 78.4746 37.3893 78.2933 37.432C78.2399 37.4213 78.2239 37.3947 78.2453 37.352C78.2773 37.3093 78.3253 37.2667 78.3893 37.224C78.4639 37.1813 78.5493 37.144 78.6453 37.112C78.7413 37.0693 78.8319 37.0427 78.9173 37.032C79.0026 37.0213 79.0879 37.016 79.1733 37.016C79.2693 37.0053 79.3653 36.9947 79.4613 36.984C79.8453 35.832 80.2559 34.792 80.6933 33.864C81.1413 32.9253 81.6106 32.1253 82.1013 31.464C82.5919 30.792 83.0986 30.2747 83.6213 29.912C84.1439 29.5493 84.6719 29.368 85.2053 29.368ZM82.8733 36.904C83.1613 36.904 83.3746 37 83.5133 37.192C83.6519 37.384 83.7213 37.6347 83.7213 37.944C83.7213 38.3067 83.6519 38.6693 83.5133 39.032C83.3746 39.3947 83.1986 39.7253 82.9853 40.024C82.7719 40.312 82.5373 40.5467 82.2812 40.728C82.0359 40.9093 81.8066 41 81.5933 41C81.3373 41 81.1346 40.8987 80.9853 40.696C80.8359 40.4933 80.7613 40.2053 80.7613 39.832C80.7613 39.5333 80.8199 39.2133 80.9373 38.872C81.0546 38.5307 81.2093 38.216 81.4013 37.928C81.6039 37.6293 81.8279 37.384 82.0733 37.192C82.3293 37 82.5959 36.904 82.8733 36.904ZM81.9133 40.504C82.0733 40.504 82.2279 40.4507 82.3773 40.344C82.5373 40.2267 82.6759 40.0773 82.7933 39.896C82.9106 39.704 83.0013 39.4853 83.0653 39.24C83.1399 38.9947 83.1773 38.7387 83.1773 38.472C83.1773 38.152 83.1239 37.9013 83.0173 37.72C82.9106 37.528 82.7346 37.432 82.4893 37.432C82.3293 37.432 82.1746 37.4907 82.0253 37.608C81.8759 37.7147 81.7426 37.864 81.6253 38.056C81.5186 38.2373 81.4333 38.456 81.3693 38.712C81.3053 38.9573 81.2733 39.2187 81.2733 39.496C81.2733 40.168 81.4866 40.504 81.9133 40.504ZM85.811 37.352C85.811 37.512 85.795 37.6987 85.763 37.912C85.731 38.1253 85.6883 38.3387 85.635 38.552C85.8483 38.04 86.083 37.64 86.339 37.352C86.595 37.0533 86.8723 36.904 87.171 36.904C87.2883 36.904 87.395 36.936 87.491 37C87.587 37.064 87.635 37.1547 87.635 37.272C87.635 37.3573 87.603 37.4693 87.539 37.608C87.475 37.736 87.411 37.832 87.347 37.896C87.283 37.9387 87.251 37.9227 87.251 37.848C87.251 37.6667 87.1283 37.576 86.883 37.576C86.5097 37.576 86.1737 37.8587 85.875 38.424C85.5763 38.9787 85.2937 39.752 85.027 40.744C85.0057 40.8507 84.931 40.92 84.803 40.952C84.6857 40.984 84.5843 41 84.499 41C84.3817 41 84.355 40.9413 84.419 40.824C84.515 40.6 84.6057 40.36 84.691 40.104C84.7763 39.8373 84.8563 39.5707 84.931 39.304C85.0163 39.0373 85.0857 38.776 85.139 38.52C85.1923 38.264 85.235 38.0293 85.267 37.816C85.3097 37.496 85.2563 37.336 85.107 37.336C85.0217 37.336 84.9203 37.384 84.803 37.48C84.6963 37.576 84.595 37.688 84.499 37.816C84.4563 37.8373 84.419 37.8373 84.387 37.816C84.355 37.784 84.3497 37.7467 84.371 37.704C84.531 37.5013 84.707 37.32 84.899 37.16C85.1017 36.9893 85.2883 36.904 85.459 36.904C85.6937 36.904 85.811 37.0533 85.811 37.352ZM93.2943 37.288C93.3049 37.256 93.3316 37.224 93.3743 37.192C93.4169 37.1493 93.4649 37.1067 93.5182 37.064C93.5823 37.0213 93.6409 36.9893 93.6943 36.968C93.7583 36.936 93.8063 36.92 93.8383 36.92C93.9343 36.92 93.9716 36.9573 93.9503 37.032C93.7156 37.6933 93.4863 38.3387 93.2623 38.968C93.0383 39.5867 92.7983 40.232 92.5423 40.904C92.2543 41.6507 91.9449 42.2747 91.6143 42.776C91.2943 43.288 90.9529 43.6987 90.5903 44.008C90.2383 44.328 89.8703 44.5573 89.4863 44.696C89.1022 44.8347 88.7076 44.904 88.3022 44.904C87.7369 44.904 87.3102 44.76 87.0222 44.472C86.7236 44.1947 86.5742 43.848 86.5742 43.432C86.5742 43.24 86.6276 43.0373 86.7342 42.824C86.8302 42.6107 86.9849 42.424 87.1982 42.264C87.2302 42.2427 87.2622 42.2533 87.2943 42.296C87.3156 42.3387 87.3156 42.3707 87.2943 42.392C87.1236 42.5947 87.0382 42.824 87.0382 43.08C87.0382 43.528 87.1662 43.8907 87.4222 44.168C87.6782 44.4453 88.0676 44.584 88.5902 44.584C88.9636 44.584 89.3049 44.5253 89.6143 44.408C89.9343 44.2907 90.2329 44.0827 90.5103 43.784C90.7983 43.4853 91.0703 43.0853 91.3263 42.584C91.5929 42.0827 91.8649 41.4533 92.1423 40.696C92.2596 40.344 92.3716 40.0187 92.4783 39.72C92.5956 39.4213 92.7129 39.112 92.8303 38.792C92.4249 39.432 91.9983 39.9547 91.5503 40.36C91.1129 40.7653 90.7236 40.984 90.3823 41.016C90.2436 41.016 90.1423 40.952 90.0783 40.824C90.0143 40.696 89.9823 40.52 89.9823 40.296C89.9823 40.104 90.0036 39.896 90.0463 39.672C90.0889 39.4373 90.1476 39.1973 90.2223 38.952C90.3076 38.7067 90.4089 38.4613 90.5263 38.216C90.6543 37.96 90.7929 37.7147 90.9423 37.48C90.8249 37.5653 90.7023 37.6613 90.5743 37.768C90.4463 37.864 90.3396 37.9547 90.2543 38.04C90.2223 38.0613 90.1903 38.056 90.1583 38.024C90.1369 37.9813 90.1369 37.944 90.1583 37.912C90.3076 37.7627 90.5103 37.592 90.7663 37.4C91.0223 37.208 91.2729 37.048 91.5182 36.92C91.6249 36.92 91.6676 36.968 91.6463 37.064C91.4863 37.2773 91.3369 37.5173 91.1983 37.784C91.0703 38.04 90.9583 38.3013 90.8623 38.568C90.7663 38.824 90.6916 39.08 90.6383 39.336C90.5849 39.592 90.5583 39.8213 90.5583 40.024C90.5583 40.3227 90.6596 40.472 90.8623 40.472C91.0329 40.472 91.2356 40.36 91.4703 40.136C91.7156 39.9013 91.9556 39.624 92.1903 39.304C92.4356 38.9733 92.6543 38.6267 92.8463 38.264C93.0489 37.8907 93.1983 37.5653 93.2943 37.288ZM96.4826 36.904C96.7706 36.904 96.984 37 97.1226 37.192C97.2613 37.384 97.3306 37.6347 97.3306 37.944C97.3306 38.3067 97.2613 38.6693 97.1226 39.032C96.984 39.3947 96.808 39.7253 96.5946 40.024C96.3813 40.312 96.1466 40.5467 95.8906 40.728C95.6453 40.9093 95.416 41 95.2026 41C94.9466 41 94.744 40.8987 94.5946 40.696C94.4453 40.4933 94.3706 40.2053 94.3706 39.832C94.3706 39.5333 94.4293 39.2133 94.5466 38.872C94.664 38.5307 94.8186 38.216 95.0106 37.928C95.2133 37.6293 95.4373 37.384 95.6826 37.192C95.9386 37 96.2053 36.904 96.4826 36.904ZM95.5226 40.504C95.6826 40.504 95.8373 40.4507 95.9866 40.344C96.1466 40.2267 96.2853 40.0773 96.4026 39.896C96.52 39.704 96.6106 39.4853 96.6746 39.24C96.7493 38.9947 96.7866 38.7387 96.7866 38.472C96.7866 38.152 96.7333 37.9013 96.6266 37.72C96.52 37.528 96.344 37.432 96.0986 37.432C95.9386 37.432 95.784 37.4907 95.6346 37.608C95.4853 37.7147 95.352 37.864 95.2346 38.056C95.128 38.2373 95.0426 38.456 94.9786 38.712C94.9146 38.9573 94.8826 39.2187 94.8826 39.496C94.8826 40.168 95.096 40.504 95.5226 40.504ZM98.5244 41C98.3857 41 98.263 40.936 98.1564 40.808C98.0497 40.6693 97.9964 40.4933 97.9964 40.28C97.9964 40.1093 98.0177 39.912 98.0604 39.688C98.1137 39.4533 98.1777 39.208 98.2524 38.952C98.3377 38.696 98.439 38.44 98.5564 38.184C98.6737 37.928 98.807 37.688 98.9564 37.464C98.839 37.5493 98.7164 37.6453 98.5884 37.752C98.4604 37.848 98.3537 37.9387 98.2684 38.024C98.2364 38.0453 98.2097 38.04 98.1884 38.008C98.167 37.9653 98.1617 37.928 98.1724 37.896C98.247 37.8213 98.343 37.736 98.4604 37.64C98.5777 37.544 98.7004 37.448 98.8284 37.352C98.967 37.256 99.1057 37.1653 99.2444 37.08C99.3937 36.984 99.5324 36.904 99.6604 36.84C99.703 36.8293 99.735 36.84 99.7564 36.872C99.7884 36.904 99.799 36.9413 99.7884 36.984C99.447 37.4213 99.1697 37.9067 98.9564 38.44C98.7537 38.9627 98.6524 39.464 98.6524 39.944C98.6524 40.2533 98.743 40.408 98.9244 40.408C99.063 40.408 99.2337 40.3173 99.4364 40.136C99.6497 39.944 99.8684 39.6987 100.092 39.4C100.316 39.0907 100.54 38.744 100.764 38.36C100.999 37.976 101.212 37.5867 101.404 37.192C101.436 37.1173 101.495 37.0533 101.58 37C101.676 36.936 101.778 36.904 101.884 36.904C102.023 36.904 102.071 36.9467 102.028 37.032C101.879 37.3093 101.746 37.5707 101.628 37.816C101.511 38.0507 101.415 38.2853 101.34 38.52C101.266 38.7547 101.207 38.9947 101.164 39.24C101.132 39.4853 101.116 39.752 101.116 40.04C101.116 40.3813 101.212 40.552 101.404 40.552C101.49 40.552 101.586 40.5093 101.692 40.424C101.799 40.328 101.906 40.2053 102.012 40.056C102.044 40.0347 102.076 40.0347 102.108 40.056C102.14 40.0773 102.146 40.1147 102.124 40.168C101.975 40.392 101.799 40.5893 101.596 40.76C101.404 40.92 101.218 41 101.036 41C100.898 41 100.78 40.9307 100.684 40.792C100.588 40.6533 100.54 40.4667 100.54 40.232C100.54 39.976 100.562 39.704 100.604 39.416C100.658 39.1173 100.738 38.8187 100.844 38.52C100.642 38.9147 100.428 39.2667 100.204 39.576C99.9804 39.8747 99.7617 40.1307 99.5484 40.344C99.3457 40.5573 99.1537 40.7227 98.9724 40.84C98.791 40.9467 98.6417 41 98.5244 41Z" fill="black"/>
</svg>
