<svg width="154" height="27" viewBox="0 0 154 27" fill="none" xmlns="http://www.w3.org/2000/svg">
<path d="M9.81 25C9.69 25.06 9.38 25.14 8.88 25.24C8.4 25.36 7.95 25.42 7.53 25.42C7.13 25.42 6.9 25.27 6.84 24.97C6.48 23.73 5.94 21.31 5.22 17.71C4.5 14.09 3.77 10.81 3.03 7.87C2.31 4.93 1.61 2.98 0.93 2.02C1.77 1.5 2.47 1.24 3.03 1.24C4.07 1.24 4.79 1.83 5.19 3.01C5.61 4.19 6.29 7.41 7.23 12.67C7.29 13.15 7.58 14.66 8.1 17.2C8.64 19.72 8.97 21.31 9.09 21.97C10.41 19.05 11.88 15.16 13.5 10.3C15.12 5.42 15.93 2.25 15.93 0.789999C17.89 1.15 18.87 1.89 18.87 3.01C18.87 3.83 18.3 5.57 17.16 8.23C16.04 10.87 14.68 13.92 13.08 17.38C11.5 20.82 10.41 23.36 9.81 25ZM27.5681 9.25C26.3681 9.25 25.3481 9.94 24.5081 11.32C23.6881 12.7 23.1381 14.32 22.8581 16.18H23.6981C24.7581 16.18 25.6781 16.03 26.4581 15.73C27.2381 15.43 27.8381 15.04 28.2581 14.56C29.0581 13.64 29.4581 12.6 29.4581 11.44C29.4581 10.78 29.2981 10.25 28.9781 9.85C28.6781 9.45 28.2081 9.25 27.5681 9.25ZM31.7981 21.4C30.8781 22.9 29.8681 23.95 28.7681 24.55C27.6681 25.15 26.3881 25.45 24.9281 25.45C23.4881 25.45 22.2281 24.81 21.1481 23.53C20.0681 22.25 19.5281 20.45 19.5281 18.13C19.5281 15.49 20.2381 13.13 21.6581 11.05C22.3581 10.05 23.2681 9.24 24.3881 8.62C25.5281 8 26.7781 7.69 28.1381 7.69C31.1381 7.69 32.6381 9.14 32.6381 12.04C32.6381 13.78 31.9581 15.15 30.5981 16.15C29.2581 17.13 27.6981 17.62 25.9181 17.62C24.7381 17.62 23.6781 17.51 22.7381 17.29C22.7181 17.49 22.7081 17.8 22.7081 18.22C22.7081 21.76 23.7581 23.53 25.8581 23.53C27.8381 23.53 29.4481 22.55 30.6881 20.59C31.4281 20.69 31.7981 20.96 31.7981 21.4ZM40.0479 15.25C40.7679 12.65 41.6279 10.74 42.6279 9.52C43.6479 8.28 44.5879 7.66 45.4479 7.66C46.3279 7.66 46.9879 7.99 47.4279 8.65C47.8679 9.29 48.0879 10.11 48.0879 11.11C48.0879 12.11 47.8279 12.98 47.3079 13.72C46.7879 14.44 46.0279 14.8 45.0279 14.8C44.7079 14.8 44.4579 14.78 44.2779 14.74C44.9579 13.76 45.2979 12.76 45.2979 11.74C45.2979 11.02 45.0079 10.66 44.4279 10.66C43.9679 10.66 43.4779 10.93 42.9579 11.47C42.4379 12.01 41.9379 12.76 41.4579 13.72C40.9779 14.68 40.5779 15.93 40.2579 17.47C39.9379 19.01 39.7779 20.67 39.7779 22.45C39.7779 22.65 39.8279 23.5 39.9279 25C39.4079 25.04 39.1079 25.06 39.0279 25.06C37.2679 25.06 36.3879 24.2 36.3879 22.48C36.3879 22.08 36.5979 20.54 37.0179 17.86C37.4379 15.18 37.6479 13.05 37.6479 11.47C37.6479 9.87 37.4779 8.4 37.1379 7.06C38.3179 7.52 39.1379 8.18 39.5979 9.04C40.0779 9.88 40.3179 10.87 40.3179 12.01C40.3179 13.13 40.2279 14.21 40.0479 15.25ZM56.2146 9.16C55.5546 9.16 54.9546 9.37 54.4146 9.79C53.8946 10.21 53.6346 10.79 53.6346 11.53C53.6346 12.25 53.8746 12.93 54.3546 13.57C54.8546 14.21 55.4546 14.78 56.1546 15.28C56.8546 15.78 57.5646 16.29 58.2846 16.81C59.9646 18.05 60.8046 19.38 60.8046 20.8C60.8046 22.22 60.2346 23.38 59.0946 24.28C57.9546 25.16 56.4946 25.6 54.7146 25.6C52.9546 25.6 51.5846 25.25 50.6046 24.55C49.6446 23.85 49.1646 23.03 49.1646 22.09C49.1646 21.13 49.4046 20.38 49.8846 19.84C50.3646 19.3 50.9446 19.03 51.6246 19.03C51.9846 19.03 52.3246 19.11 52.6446 19.27C52.2046 19.83 51.9846 20.49 51.9846 21.25C51.9846 22.01 52.2146 22.65 52.6746 23.17C53.1546 23.69 53.8046 23.95 54.6246 23.95C55.4646 23.95 56.1746 23.74 56.7546 23.32C57.3346 22.88 57.6246 22.33 57.6246 21.67C57.6246 21.01 57.4546 20.43 57.1146 19.93C56.7746 19.43 56.3446 19 55.8246 18.64C55.3246 18.28 54.7746 17.88 54.1746 17.44C53.5746 17 53.0146 16.57 52.4946 16.15C51.9946 15.71 51.5746 15.17 51.2346 14.53C50.8946 13.87 50.7246 13.15 50.7246 12.37C50.7246 10.95 51.2646 9.79 52.3446 8.89C53.4246 7.97 54.7846 7.51 56.4246 7.51C58.0646 7.51 59.2646 7.85 60.0246 8.53C60.7846 9.21 61.1646 9.98 61.1646 10.84C61.1646 11.68 60.9546 12.38 60.5346 12.94C60.1146 13.48 59.5746 13.75 58.9146 13.75C58.5946 13.75 58.2246 13.66 57.8046 13.48C58.3246 12.84 58.5846 12.15 58.5846 11.41C58.5846 10.67 58.3546 10.11 57.8946 9.73C57.4546 9.35 56.8946 9.16 56.2146 9.16ZM76.4032 15.16C76.4032 13.2 76.1532 11.8 75.6532 10.96C75.1732 10.1 74.4732 9.67 73.5532 9.67C72.6532 9.67 71.7432 10.12 70.8232 11.02C69.9032 11.9 69.1732 13 68.6332 14.32C68.1132 15.62 67.8532 16.98 67.8532 18.4C67.8532 19.8 68.1232 21.02 68.6632 22.06C69.2032 23.08 70.0232 23.59 71.1232 23.59C72.6832 23.59 73.9532 22.67 74.9332 20.83C75.9132 18.99 76.4032 17.1 76.4032 15.16ZM67.7032 13.99C68.4632 11.83 69.4832 10.26 70.7632 9.28C72.0632 8.28 73.3732 7.78 74.6932 7.78C76.0332 7.78 77.1432 8.37 78.0232 9.55C78.9032 10.71 79.3432 12.29 79.3432 14.29C79.3432 16.49 78.9232 18.53 78.0832 20.41C77.1432 22.49 75.7832 23.94 74.0032 24.76C73.0432 25.22 71.9832 25.45 70.8232 25.45C69.2032 25.45 67.7832 24.78 66.5632 23.44C65.3432 22.08 64.7332 20.15 64.7332 17.65C64.7332 15.13 65.2732 12.95 66.3532 11.11C67.4332 9.27 68.9032 7.99 70.7632 7.27C71.1632 7.27 71.3632 7.47 71.3632 7.87C69.3832 9.17 68.1632 11.21 67.7032 13.99ZM103.439 0.939999C104.559 1.04 105.359 1.39 105.839 1.99C106.319 2.57 106.559 3.38 106.559 4.42C106.559 5.44 106.229 8.21 105.569 12.73C104.909 17.25 104.579 20.42 104.579 22.24C104.579 24.04 104.719 25.27 104.999 25.93C103.679 25.49 102.759 24.9 102.239 24.16C101.739 23.42 101.489 22.54 101.489 21.52C101.489 20.5 101.709 18.35 102.149 15.07C102.609 11.79 102.909 9.29 103.049 7.57C102.229 9.15 100.859 11.39 98.9388 14.29C97.0388 17.19 95.9388 18.88 95.6388 19.36C95.1588 19.64 94.6588 19.78 94.1388 19.78C93.1988 19.78 92.6688 19.61 92.5488 19.27C92.3288 18.71 91.9788 17.82 91.4988 16.6C91.0388 15.36 90.6588 14.35 90.3588 13.57C89.4788 11.37 88.6888 9.52 87.9888 8.02C87.9688 8.16 87.7188 10.09 87.2388 13.81C86.7788 17.51 86.5488 20.46 86.5488 22.66C86.5488 23.28 86.5888 24.11 86.6688 25.15C84.5888 25.15 83.5488 24.52 83.5488 23.26C83.5488 23.08 83.9288 20.37 84.6888 15.13C85.4688 9.87 85.8588 6.21 85.8588 4.15V4C85.2788 3.06 84.6688 2.29 84.0288 1.69C84.5088 1.17 85.0988 0.909999 85.7988 0.909999C87.1588 0.909999 88.2488 1.68 89.0688 3.22C89.9088 4.74 91.7588 9.27 94.6188 16.81C94.6788 16.93 94.7188 17.02 94.7388 17.08C94.9188 16.8 95.4088 16.08 96.2088 14.92C97.0088 13.76 97.6088 12.87 98.0088 12.25C98.4288 11.61 98.9988 10.71 99.7188 9.55C100.439 8.37 100.999 7.36 101.399 6.52C102.519 4.24 103.199 2.38 103.439 0.939999ZM115.732 13.27C115.152 14.27 114.702 15.3 114.382 16.36C114.082 17.4 113.932 18.4 113.932 19.36C113.932 20.32 114.142 21.14 114.562 21.82C115.002 22.48 115.622 22.81 116.422 22.81C117.542 22.81 118.592 22.2 119.572 20.98C120.552 19.74 121.302 18.25 121.822 16.51C122.362 14.75 122.632 13.13 122.632 11.65C122.632 10.15 122.572 8.92 122.452 7.96C122.932 7.92 123.232 7.9 123.352 7.9C125.052 7.9 125.902 8.77 125.902 10.51C125.902 10.89 125.662 12.44 125.182 15.16C124.702 17.86 124.462 20.03 124.462 21.67C124.462 23.29 124.772 24.73 125.392 25.99C124.132 25.73 123.212 25.18 122.632 24.34C122.072 23.48 121.792 22.25 121.792 20.65C121.792 20.37 121.832 19.83 121.912 19.03C121.372 20.93 120.422 22.46 119.062 23.62C117.702 24.78 116.362 25.36 115.042 25.36C113.742 25.36 112.692 24.87 111.892 23.89C111.092 22.89 110.692 21.52 110.692 19.78C110.692 18.02 111.012 16.31 111.652 14.65C112.312 12.97 113.292 11.52 114.592 10.3C115.912 9.08 117.382 8.47 119.002 8.47C119.702 8.47 120.472 8.61 121.312 8.89C120.132 9.19 119.052 9.74 118.072 10.54C117.092 11.34 116.312 12.25 115.732 13.27ZM134.355 15.25C135.075 12.65 135.935 10.74 136.935 9.52C137.955 8.28 138.895 7.66 139.755 7.66C140.635 7.66 141.295 7.99 141.735 8.65C142.175 9.29 142.395 10.11 142.395 11.11C142.395 12.11 142.135 12.98 141.615 13.72C141.095 14.44 140.335 14.8 139.335 14.8C139.015 14.8 138.765 14.78 138.585 14.74C139.265 13.76 139.605 12.76 139.605 11.74C139.605 11.02 139.315 10.66 138.735 10.66C138.275 10.66 137.785 10.93 137.265 11.47C136.745 12.01 136.245 12.76 135.765 13.72C135.285 14.68 134.885 15.93 134.565 17.47C134.245 19.01 134.085 20.67 134.085 22.45C134.085 22.65 134.135 23.5 134.235 25C133.715 25.04 133.415 25.06 133.335 25.06C131.575 25.06 130.695 24.2 130.695 22.48C130.695 22.08 130.905 20.54 131.325 17.86C131.745 15.18 131.955 13.05 131.955 11.47C131.955 9.87 131.785 8.4 131.445 7.06C132.625 7.52 133.445 8.18 133.905 9.04C134.385 9.88 134.625 10.87 134.625 12.01C134.625 13.13 134.535 14.21 134.355 15.25ZM153.911 8.56C153.911 9.4 153.751 9.98 153.431 10.3C153.111 10.62 152.641 10.78 152.021 10.78H149.861C149.781 11.3 149.571 12.54 149.231 14.5C148.551 18.22 148.211 21.03 148.211 22.93C148.211 24.83 148.351 26.09 148.631 26.71C147.491 26.29 146.681 25.66 146.201 24.82C145.721 23.96 145.481 22.92 145.481 21.7C145.481 20.48 145.551 19.33 145.691 18.25C145.851 17.15 146.071 15.87 146.351 14.41C146.631 12.95 146.831 11.78 146.951 10.9C145.811 11.06 144.691 11.38 143.591 11.86C143.551 11.54 143.531 11.25 143.531 10.99C143.531 10.03 143.851 9.39 144.491 9.07C145.131 8.73 146.051 8.56 147.251 8.56C147.391 7.08 147.461 5.98 147.461 5.26C147.461 4.52 147.451 3.93 147.431 3.49C147.431 3.05 147.431 2.72 147.431 2.5C148.351 2.64 149.061 3.05 149.561 3.73C150.061 4.39 150.311 5.3 150.311 6.46C150.311 7.06 150.261 7.79 150.161 8.65C151.901 8.65 153.131 8.36 153.851 7.78C153.891 8.06 153.911 8.32 153.911 8.56Z" fill="#343434"/>
</svg>
